<?xml version="1.0" encoding="UTF-8"?>
<svg version="1.1" xmlns="http://www.w3.org/2000/svg" width="500" height="500">
<path d="M0 0 C165 0 330 0 500 0 C500 165 500 330 500 500 C335 500 170 500 0 500 C0 335 0 170 0 0 Z " fill="#042434" transform="translate(0,0)"/>
<path d="M0 0 C10.66693108 8.92775754 16.49364689 19.18024673 18 33 C18.11196107 36.64718458 18.09491946 40.28906393 18.0625 43.9375 C18.05798828 44.90751953 18.05347656 45.87753906 18.04882812 46.87695312 C18.0371315 49.2513676 18.02074086 51.62565021 18 54 C18.66 54 19.32 54 20 54 C20 50.37 20 46.74 20 43 C26.8694075 49.68863362 26.8694075 49.68863362 27.1875 52.8828125 C26.68743387 58.86277001 25.09246923 64.24012015 23.125 69.875 C22.86847656 70.61250488 22.61195313 71.35000977 22.34765625 72.10986328 C21.00465499 75.79383723 19.76151807 79.11775983 17 82 C16.34 82 15.68 82 15 82 C15.66 82.66 16.32 83.32 17 84 C17.99 83.67 18.98 83.34 20 83 C25.55826862 81.45042208 30.10501386 80.98232226 35.375 83.8125 C38.21624536 86.18020447 39.81642849 87.76910471 40.37109375 91.48828125 C40.57249874 100.05391695 40.57249874 100.05391695 37.75 103.5625 C33.54075034 107.29342584 30.36896033 108.2564832 24.8125 109 C20.89723175 109.55119978 17.08500295 110.16455834 13.25 111.125 C8.77439301 112.18785287 4.58829857 112.14566027 0 112 C0 112.66 0 113.32 0 114 C-2.60356241 114.50333542 -5.20776651 115.00279378 -7.8125 115.5 C-8.55048828 115.64308594 -9.28847656 115.78617187 -10.04882812 115.93359375 C-13.07794391 116.50926281 -15.909196 117 -19 117 C-19 115.35 -19 113.7 -19 112 C-19.66 112 -20.32 112 -21 112 C-20.01 122.395 -20.01 122.395 -19 133 C-26.875 126.25 -26.875 126.25 -30 121 C-27.25105146 126.19245835 -24.47412335 131.26293832 -19 134 C-18.91270953 138.06236402 -18.85951008 142.12448589 -18.8125 146.1875 C-18.78736328 147.33798828 -18.76222656 148.48847656 -18.73632812 149.67382812 C-18.72666016 150.78564453 -18.71699219 151.89746094 -18.70703125 153.04296875 C-18.6913208 154.06414795 -18.67561035 155.08532715 -18.65942383 156.13745117 C-19.05859562 159.49249726 -19.9784819 161.31118466 -22 164 C-26.80553601 166.68001046 -30.5354865 167.33456205 -36 167 C-35.29952017 159.07480382 -33.58813199 151.61017889 -31.640625 143.90820312 C-29.78815231 136.92582961 -29.78815231 136.92582961 -31 130 C-35.99755644 126.92969405 -41.31490347 125.76647743 -46.96484375 124.484375 C-47.91637833 124.26428772 -48.8679129 124.04420044 -49.84828186 123.81744385 C-51.85359175 123.35641338 -53.85983795 122.89943884 -55.86694336 122.44628906 C-58.92725418 121.75232338 -61.98206581 121.03706421 -65.03710938 120.3203125 C-66.99188966 119.87369439 -68.94695905 119.4283394 -70.90234375 118.984375 C-72.2635862 118.66264313 -72.2635862 118.66264313 -73.65232849 118.33441162 C-78.67517073 117.2225262 -82.95486129 116.4540976 -88 118 C-90.85537223 121.37118875 -91.66436586 124.98869928 -92.5703125 129.25390625 C-92.82683594 130.43791016 -93.08335937 131.62191406 -93.34765625 132.84179688 C-93.60417969 134.06962891 -93.86070312 135.29746094 -94.125 136.5625 C-94.6482473 139.0013429 -95.17167693 141.44014669 -95.6953125 143.87890625 C-95.92234863 144.9572876 -96.14938477 146.03566895 -96.38330078 147.14672852 C-96.88009376 149.44523191 -97.41109924 151.72376455 -98 154 C-103.14783406 152.33452427 -107.07062582 149.43268918 -110.4375 145.1875 C-112.27797127 138.03011173 -108.65740115 131.3632358 -105.5625 125.125 C-104.95051758 123.84496094 -104.95051758 123.84496094 -104.32617188 122.5390625 C-101.30082325 116.30082325 -101.30082325 116.30082325 -99 114 C-96.4627576 113.14282351 -93.8992748 112.47306186 -91.3125 111.78125 C-88.84105678 111.13678264 -88.84105678 111.13678264 -87 109 C-87.62648438 109.28875 -88.25296875 109.5775 -88.8984375 109.875 C-89.71570313 110.24625 -90.53296875 110.6175 -91.375 111 C-92.18710937 111.37125 -92.99921875 111.7425 -93.8359375 112.125 C-96 113 -96 113 -98 113 C-96.68925635 108.53817564 -94.92933989 105.00381243 -92.375 101.125 C-91.74335938 100.15820312 -91.11171875 99.19140625 -90.4609375 98.1953125 C-89.73777344 97.10863281 -89.73777344 97.10863281 -89 96 C-89.66 96 -90.32 96 -91 96 C-91 96.66 -91 97.32 -91 98 C-94.42946293 96.38325319 -97.56263052 94.42402323 -100.75 92.375 C-101.73484375 91.74335938 -102.7196875 91.11171875 -103.734375 90.4609375 C-104.48203125 89.97882813 -105.2296875 89.49671875 -106 89 C-104.68 87.68 -103.36 86.36 -102 85 C-102.5775 85.350625 -103.155 85.70125 -103.75 86.0625 C-106.54218171 87.22590905 -107.18642657 87.04532068 -110 86 C-112.15851747 84.57124038 -114.19939799 83.12988598 -116.25 81.5625 C-117.08144531 80.95051758 -117.08144531 80.95051758 -117.9296875 80.32617188 C-119.32810909 79.27046691 -120.66950652 78.14012413 -122 77 C-122 76.34 -122 75.68 -122 75 C-122.886875 74.9175 -123.77375 74.835 -124.6875 74.75 C-129.4430596 73.67326952 -131.845464 71.47302869 -134.8125 67.6875 C-136.40136683 64.09164348 -136.5302398 61.9105185 -136 58 C-133.97340626 53.71387072 -131.96816552 50.64544368 -128 48 C-123.13347753 47.27965416 -119.1383437 47.40893692 -114.75 49.6875 C-113.8425 50.450625 -112.935 51.21375 -112 52 C-110.00126321 53.66818597 -108.00045568 55.33387462 -106 57 C-106.01160156 55.80503906 -106.02320313 54.61007813 -106.03515625 53.37890625 C-106.06553295 49.3075724 -106.05445836 45.23775544 -106.01660156 41.16650391 C-106.00343518 39.44829112 -106.00996134 37.72992913 -106.0234375 36.01171875 C-105.90551738 32.90827568 -105.49670152 30.61172714 -103.515625 28.171875 C-100.55547545 25.46472968 -98.03407326 23.61930336 -94 23 C-93.67 23.33 -93.34 23.66 -93 24 C-92.23816406 22.40671875 -92.23816406 22.40671875 -91.4609375 20.78125 C-85.69410582 8.86867172 -80.79665224 -0.16424652 -69 -7 C-68.13503906 -7.51046875 -67.27007812 -8.0209375 -66.37890625 -8.546875 C-46.22109483 -18.2838911 -17.9144062 -11.951771 0 0 Z " fill="#052535" transform="translate(445,146)"/>
<path d="M0 0 C5.28198623 0.92074544 10.477971 2.12079675 15.6875 3.375 C17.06289568 3.69640723 18.43854623 4.0167258 19.81445312 4.3359375 C23.54742566 5.20567935 27.2742381 6.09983397 31 7 C31.87922119 7.20898926 32.75844238 7.41797852 33.66430664 7.63330078 C38.74594814 8.86142626 38.74594814 8.86142626 41.0625 10.125 C44.13794901 16.27589803 39.32221463 28.17721951 37.9375 34.5 C37.6526753 35.8124307 37.3681675 37.12493022 37.08398438 38.4375 C36.39242867 41.62568901 35.69768137 44.81314691 35 48 C22.96835429 48.47580154 12.62132576 47.02071497 1 44 C-0.4086599 43.64895913 -1.81750919 43.29867717 -3.2265625 42.94921875 C-9.39635543 41.38280619 -15.19095672 39.60558104 -21 37 C-20.42373922 29.57923501 -19.23793957 22.40122702 -17.6875 15.125 C-17.38682617 13.59746094 -17.38682617 13.59746094 -17.08007812 12.0390625 C-16.76780273 10.56953125 -16.76780273 10.56953125 -16.44921875 9.0703125 C-16.26705811 8.19133301 -16.08489746 7.31235352 -15.8972168 6.40673828 C-12.97715505 -1.42617836 -7.18774927 -0.76581154 0 0 Z " fill="#8FC9E3" transform="translate(372,266)"/>
<path d="M0 0 C10.71238371 8.96579941 16.4120675 19.15828748 18 33 C19.07452627 50.2976575 17.390828 65.92101333 8 81 C7.01 81.495 7.01 81.495 6 82 C7 77 7 77 7.53515625 74.51171875 C10.73461013 57.37686577 11.53112376 38.52877754 2.3125 23.25 C-6.33993469 11.27971441 -18.82641679 4.94503115 -33.1640625 2.44921875 C-47.69002799 0.74811281 -60.23202176 0.40268359 -72.21484375 9.72265625 C-86.97926501 23.07014649 -92.88164204 42.62758703 -93.8515625 61.78125 C-93.92503906 63.37453125 -93.92503906 63.37453125 -94 65 C-97.98773185 61.01226815 -97.26277959 54.51407081 -97.3125 49.125 C-97.3125 32.26650318 -91.46987943 14.81169641 -80.66796875 1.6640625 C-77.14200642 -1.8536423 -73.30020959 -4.50817672 -69 -7 C-67.70255859 -7.76570312 -67.70255859 -7.76570312 -66.37890625 -8.546875 C-46.22109483 -18.2838911 -17.9144062 -11.951771 0 0 Z " fill="#8EC7E1" transform="translate(445,146)"/>
<path d="M0 0 C0.53367187 0.18175781 1.06734375 0.36351562 1.6171875 0.55078125 C3.2074388 1.08728472 4.80013281 1.61657466 6.39453125 2.140625 C8.02204418 2.67743586 9.64535315 3.22737831 11.26171875 3.796875 C19.00675394 6.37417024 26.92069943 7.14796458 35 8 C35.08636719 8.73863281 35.17273438 9.47726563 35.26171875 10.23828125 C36.61970607 20.04319889 39.75466062 29.19332577 46 37 C47.28100586 37.64702881 47.28100586 37.64702881 48.58789062 38.30712891 C51 40 51 40 51.61523438 42.55615234 C51.60814453 43.55598145 51.60105469 44.55581055 51.59375 45.5859375 C51.59117187 46.68164062 51.58859375 47.77734375 51.5859375 48.90625 C51.55757813 50.0509375 51.52921875 51.195625 51.5 52.375 C51.50386719 54.08042969 51.50386719 54.08042969 51.5078125 55.8203125 C51.39488822 65.44146136 51.39488822 65.44146136 48 70 C43.19446399 72.68001046 39.4645135 73.33456205 34 73 C34.70047983 65.07480382 36.41186801 57.61017889 38.359375 49.90820312 C40.21184769 42.92582961 40.21184769 42.92582961 39 36 C34.00244356 32.92969405 28.68509653 31.76647743 23.03515625 30.484375 C22.08362167 30.26428772 21.1320871 30.04420044 20.15171814 29.81744385 C18.14640825 29.35641338 16.14016205 28.89943884 14.13305664 28.44628906 C11.07274582 27.75232338 8.01793419 27.03706421 4.96289062 26.3203125 C3.00811034 25.87369439 1.05304095 25.4283394 -0.90234375 24.984375 C-1.80983871 24.76988708 -2.71733368 24.55539917 -3.65232849 24.33441162 C-8.67517073 23.2225262 -12.95486129 22.4540976 -18 24 C-20.85537223 27.37118875 -21.66436586 30.98869928 -22.5703125 35.25390625 C-22.95509766 37.02991211 -22.95509766 37.02991211 -23.34765625 38.84179688 C-23.60417969 40.06962891 -23.86070312 41.29746094 -24.125 42.5625 C-24.6482473 45.0013429 -25.17167693 47.44014669 -25.6953125 49.87890625 C-25.92234863 50.9572876 -26.14938477 52.03566895 -26.38330078 53.14672852 C-26.88009376 55.44523191 -27.41109924 57.72376455 -28 60 C-32.52405271 58.53633589 -35.71041402 56.44258998 -39 53 C-40.03706422 43.74448066 -34.26113388 35.00576804 -29.1875 27.5625 C-26.25284762 23.89224874 -22.69120968 21.55699609 -18.796875 18.984375 C-15.530766 16.66707979 -12.58273865 14.13110613 -9.625 11.4375 C-8.87549072 10.76690552 -8.87549072 10.76690552 -8.11083984 10.08276367 C-4.76281748 6.98954355 -2.38058712 3.84165837 0 0 Z " fill="#8FC8E2" transform="translate(375,240)"/>
<path d="M0 0 C1.41236938 0.01123901 1.41236938 0.01123901 2.85327148 0.02270508 C19.99072639 0.28694872 33.45717143 4.39621281 46.09375 16.27734375 C57.66776006 28.21843995 58.22197123 41.55538524 58.09375 57.21484375 C57.97322579 63.72214668 57.46162148 69.90111178 55.9375 76.25 C55.76605469 77.01054687 55.59460938 77.77109375 55.41796875 78.5546875 C53.69348134 84.45132186 49.71858405 87.61592186 44.9375 91.25 C44.2775 90.92 43.6175 90.59 42.9375 90.25 C43.824375 89.321875 44.71125 88.39375 45.625 87.4375 C54.03383451 77.57749546 56.49848389 65.19607504 56.24609375 52.546875 C55.11547827 40.46789447 48.71068666 29.0193156 39.8671875 20.8046875 C26.72219616 10.21418841 12.3922507 7.64628469 -4.0625 9.25 C-16.57526988 11.56616441 -27.73906542 18.88181144 -35.0625 29.25 C-43.63609096 43.89575561 -44.89782692 57.77864064 -41.0625 74.25 C-44.59952435 71.1845789 -45.88680615 68.76125966 -47.0625 64.25 C-47.88628704 45.19728436 -40.94854001 27.15972392 -28.625 12.75 C-20.1303596 3.82989402 -12.21492413 -0.12617164 0 0 Z " fill="#56849F" transform="translate(397.0625,146.75)"/>
<path d="M0 0 C0.75987809 0.00021737 1.51975618 0.00043474 2.30266088 0.00065869 C3.17890837 -0.0039401 4.05515587 -0.0085389 4.95795631 -0.01327705 C5.92651052 -0.00813349 6.89506473 -0.00298993 7.89296907 0.0023095 C8.91738302 -0.00010491 9.94179698 -0.00251933 10.99725378 -0.00500691 C14.4526223 -0.01067222 17.90780825 -0.00195924 21.36316866 0.00662774 C23.83158856 0.00555551 26.30000822 0.00361772 28.76842684 0.00087517 C34.79241495 -0.00348171 40.81633085 0.00148605 46.84030814 0.01072548 C53.8571475 0.02110096 60.87397496 0.02103946 67.89082056 0.0205529 C80.41677107 0.0200518 92.9426961 0.02922409 105.46863741 0.04373711 C117.61610307 0.05780431 129.76354629 0.06490881 141.91102022 0.06424493 C143.03168343 0.06418499 143.03168343 0.06418499 144.17498631 0.06412385 C144.9208141 0.06408349 145.66664189 0.06404314 146.43507051 0.06400156 C160.26518238 0.06331062 174.09528471 0.06921082 187.92539348 0.07815478 C192.81236766 0.08116586 197.69934009 0.08223374 202.5863151 0.08268708 C209.17474627 0.0834428 215.76315695 0.0898119 222.35158151 0.09985322 C224.76824989 0.10276946 227.18492098 0.10400536 229.60159105 0.10342568 C232.90455246 0.10293332 236.20744844 0.10860725 239.51040071 0.11583489 C240.46333987 0.11428629 241.41627903 0.11273769 242.39809513 0.11114216 C248.05696956 0.13154093 253.53191764 0.52986198 259.14612764 1.24954766 C259.14612764 2.23954766 259.14612764 3.22954766 259.14612764 4.24954766 C234.47949237 4.27321042 209.81285887 4.29068681 185.14621443 4.30135983 C173.68565095 4.30645354 162.22509472 4.31338908 150.76453584 4.32498711 C62.46209144 4.4124377 62.46209144 4.4124377 26.69690889 3.80814141 C24.88378237 3.77884388 24.88378237 3.77884388 23.03402704 3.74895447 C19.7370111 3.69337975 16.44024647 3.63061722 13.14344209 3.56375664 C12.21388263 3.54723738 11.28432317 3.53071812 10.32659525 3.51369828 C5.5144578 3.40261443 0.8950887 3.04296921 -3.85387236 2.24954766 C-1.85387236 0.24954766 -1.85387236 0.24954766 0 0 Z " fill="#E0E4E6" transform="translate(21.85387235879898,283.7504523396492)"/>
<path d="M0 0 C0.70318359 -0.01611328 1.40636719 -0.03222656 2.13085938 -0.04882812 C6.64044508 -0.05305454 9.47661049 0.55667751 13.0625 3.3125 C15.45789302 6.28609133 16.03494324 8.05071077 16.4375 11.875 C16.03684102 15.54770728 15.27246354 16.52602423 13.0625 19.3125 C13.34132869 22.37961564 14.30497137 23.67620706 16.0625 26.3125 C16.3125 28.875 16.3125 28.875 16.0625 31.3125 C14.0625 33.3125 14.0625 33.3125 10.8125 33.4375 C5.61146683 31.87719005 3.84725679 28.79055213 1.0625 24.3125 C0.93875 25.42625 0.815 26.54 0.6875 27.6875 C0.0625 31.3125 0.0625 31.3125 -1.9375 33.3125 C-4.3125 33.6875 -4.3125 33.6875 -6.9375 33.3125 C-9.72785429 31.0647146 -10.79660005 29.73519984 -11.9375 26.3125 C-12.01989169 24.46639468 -12.04493359 22.61744836 -12.03515625 20.76953125 C-12.03193359 19.69638672 -12.02871094 18.62324219 -12.02539062 17.51757812 C-12.01701172 16.39802734 -12.00863281 15.27847656 -12 14.125 C-11.99548828 12.99384766 -11.99097656 11.86269531 -11.98632812 10.69726562 C-11.97453498 7.90229073 -11.9580765 5.1074218 -11.9375 2.3125 C-7.96737715 0.10894749 -4.46188021 -0.02033674 0 0 Z " fill="#F5F6F7" transform="translate(74.9375,183.6875)"/>
<path d="M0 0 C3.80579154 1.65469197 5.79571424 3.53371858 8 7 C9.06751556 9.74461931 9.88242576 12.54386279 10.6875 15.375 C10.91244141 16.1175 11.13738281 16.86 11.36914062 17.625 C12.58974381 21.82476536 13.4602851 25.58393132 13 30 C11 32 11 32 9.0546875 32.1953125 C7.03645833 32.13020833 5.01822917 32.06510417 3 32 C2.34 30.35 1.68 28.7 1 27 C-1.31 27 -3.62 27 -6 27 C-6.33 28.65 -6.66 30.3 -7 32 C-12.36023055 33.34005764 -12.36023055 33.34005764 -15.16796875 31.84765625 C-17.58505466 29.40995553 -17.56714649 28.15122967 -17.5625 24.75 C-17.31670958 17.00760163 -15.25789599 7.46249619 -10.60546875 1.08984375 C-7.42193978 -1.07123796 -3.674463 -0.47871525 0 0 Z " fill="#F3F5F6" transform="translate(122,184)"/>
<path d="M0 0 C1.65861961 0.69555016 3.27319523 1.49455714 4.875 2.3125 C4.5625 5.1875 4.5625 5.1875 3.875 8.3125 C0.70491003 10.42589331 -0.56651041 10.62263264 -4.25 10.875 C-7.49420975 10.85734879 -7.49420975 10.85734879 -10.125 12.3125 C-10.37505386 15.27067107 -10.37505386 15.27067107 -10.125 18.3125 C-9.465 18.9725 -8.805 19.6325 -8.125 20.3125 C-6.05900917 20.38004834 -6.05900917 20.38004834 -4.125 19.3125 C-2.82839566 16.82215614 -2.82839566 16.82215614 -2.125 14.3125 C1.43430982 13.98892638 3.29291735 13.9244449 6.3125 15.9375 C7.875 18.3125 7.875 18.3125 7.9375 21.1875 C6.56094132 25.236202 4.86475243 27.25156299 1.875 30.3125 C-3.34944126 32.05398042 -8.68965282 32.01235818 -14.125 31.3125 C-18.48867832 29.0760238 -21.31776144 25.85974541 -23.125 21.3125 C-23.79225803 16.17616494 -23.73968952 11.69555141 -21.625 6.9375 C-15.43306968 0.43597316 -8.95343723 -2.89670028 0 0 Z " fill="#F7F8F8" transform="translate(41.125,184.6875)"/>
<path d="M0 0 C0.62003906 0.43570312 1.24007813 0.87140625 1.87890625 1.3203125 C22.18821395 14.97810021 47.38308696 20.25197099 71.5625 20.0625 C72.66658203 20.05798828 73.77066406 20.05347656 74.90820312 20.04882812 C77.605527 20.0371514 80.30273347 20.02077525 83 20 C82.505 22.475 82.505 22.475 82 25 C77.71 25 73.42 25 69 25 C72.96 25.66 76.92 26.32 81 27 C85 37.75 85 37.75 85 40 C84.45601563 39.84144531 83.91203125 39.68289063 83.3515625 39.51953125 C75.44580731 37.77291092 68.31522939 38.69329053 61.05859375 42.125 C59 43 59 43 56 43 C55.78085937 42.21496094 55.56171875 41.42992187 55.3359375 40.62109375 C53.23098394 33.64736548 51.02005246 29.24823666 46 24 C46 23.34 46 22.68 46 22 C50.29 22.33 54.58 22.66 59 23 C57.69289063 22.76925781 56.38578125 22.53851563 55.0390625 22.30078125 C43.14203177 20.15012103 31.5696791 17.50013239 20 14 C19.14438477 13.74395996 18.28876953 13.48791992 17.40722656 13.22412109 C14.76822399 12.43049755 12.13338001 11.62457086 9.5 10.8125 C8.67999512 10.56258301 7.85999023 10.31266602 7.01513672 10.05517578 C1.23497027 8.23497027 1.23497027 8.23497027 -1 6 C-0.625 2.875 -0.625 2.875 0 0 Z " fill="#8EC7E1" transform="translate(335,295)"/>
<path d="M0 0 C4.21756748 4.36335993 4.69346716 10.27614184 6 16 C7.32 10.72 8.64 5.44 10 0 C17 0 17 0 18.91430664 1.24609375 C21.36738554 5.20897183 20.41730792 10.13361496 19.44189453 14.49609375 C18.71557288 17.02465954 17.91127701 19.50999514 17.0625 22 C16.78470703 22.85722656 16.50691406 23.71445313 16.22070312 24.59765625 C14.17184733 30.82815267 14.17184733 30.82815267 13 32 C10.453125 32.2734375 10.453125 32.2734375 7.25 32.375 C6.20328125 32.42398438 5.1565625 32.47296875 4.078125 32.5234375 C-0.18855969 31.79788452 -1.42443977 30.46049631 -4 27 C-5.25814869 23.89943413 -6.05254092 20.75411988 -6.8125 17.5 C-7.02841797 16.65824219 -7.24433594 15.81648437 -7.46679688 14.94921875 C-9.41836206 7.08100354 -9.41836206 7.08100354 -9 3 C-6.74280427 -0.63659311 -4.02330328 -0.58673173 0 0 Z " fill="#F7F8F9" transform="translate(154,184)"/>
<path d="M0 0 C5.40521195 2.75359854 9.54683487 6.66455605 12.75 11.8125 C13.04945534 15.63055564 12.47433296 16.23392588 10.125 19.125 C5.66141038 23.70259093 1.21329436 26.4858729 -5.125 27.5 C-10.21526683 26.6147362 -13.1006612 24.06500647 -16.375 20.1875 C-18.35909759 16.29561627 -18.67053192 14.32120574 -18 10 C-13.92607033 1.43230822 -9.46263601 -1.19761487 0 0 Z " fill="#8EC8E2" transform="translate(327,194)"/>
<path d="M0 0 C4.29408254 0.04870415 6.751285 1.55315416 10.0625 4.3125 C13.03867913 8.7767687 12.80256072 13.07974742 12.0625 18.3125 C10.10877891 22.26664469 7.10034612 24.64192545 3.0625 26.3125 C-1.20879769 26.96962272 -4.79985525 26.88132237 -8.6875 24.9375 C-13.21447017 19.6560348 -16.3850171 13.31061669 -16.9375 6.3125 C-11.07106533 2.36757743 -7.09386583 0.56300522 0 0 Z " fill="#8FC8E2" transform="translate(472.9375,227.6875)"/>
<path d="M0 0 C2 3 2 3 1.9375 6.4375 C1 10 1 10 -0.9375 12.25 C-8.45875536 16.54786021 -16.39659455 17.99825773 -25 17 C-27.67056551 16.26524124 -29.5591132 15.37963167 -32 14 C-33.45147903 11.09704195 -33.37239025 9.22738221 -33 6 C-29.72621153 1.22962252 -26.36535057 -1.94231839 -20.8125 -3.6875 C-13.08448956 -4.54616783 -6.53420308 -4.78854589 0 0 Z " fill="#8FC8E2" transform="translate(431,355)"/>
<path d="M0 0 C7.65556849 1.25501123 13.95211921 4.67691829 18.6953125 10.8671875 C21.45585764 15.21070258 22.46278142 19.53112889 21.8125 24.625 C20.25 27.5 20.25 27.5 17.8125 29.625 C13.1496143 30.63072045 10.30321022 29.61215389 6.375 27.1875 C0.04668568 22.62547889 -7.18678155 16.20043135 -8.625 8.1875 C-7.78003676 3.2384296 -4.78323501 0.93788922 0 0 Z " fill="#91C8E1" transform="translate(307.1875,325.375)"/>
<path d="M0 0 C4.00110008 1.30220871 8.00417255 2.52115614 12.05859375 3.6484375 C13.15429688 3.95458984 14.25 4.26074219 15.37890625 4.57617188 C16.4875 4.88490234 17.59609375 5.19363281 18.73828125 5.51171875 C19.88554687 5.83205078 21.0328125 6.15238281 22.21484375 6.48242188 C25.01408534 7.26387682 27.81356724 8.0444584 30.61328125 8.82421875 C27.62339561 12.0039384 24.12605455 13.93576954 20.36328125 16.07421875 C14.59072093 19.42217961 10.14389619 22.87215125 5.61328125 27.82421875 C4.95328125 27.82421875 4.29328125 27.82421875 3.61328125 27.82421875 C3.05640625 26.62796875 2.49953125 25.43171875 1.92578125 24.19921875 C-2.29492294 15.90385549 -7.32643913 12.23780876 -15.38671875 7.82421875 C-6.05148439 -2.06014704 -6.05148439 -2.06014704 0 0 Z " fill="#8FC8E2" transform="translate(340.38671875,305.17578125)"/>
<path d="M0 0 C3.125 0.5 3.125 0.5 5.4375 3.1875 C6.9198399 6.09727833 7.74691393 8.28626842 8.125 11.5 C8.785 11.5 9.445 11.5 10.125 11.5 C10.32996094 10.87351563 10.53492188 10.24703125 10.74609375 9.6015625 C11.01550781 8.78429687 11.28492188 7.96703125 11.5625 7.125 C11.82933594 6.31289062 12.09617187 5.50078125 12.37109375 4.6640625 C13.125 2.5 13.125 2.5 14.125 0.5 C17.5 0.8125 17.5 0.8125 21.125 1.5 C23.125 4.5 23.125 4.5 22.9375 6.83203125 C22.00874421 9.88174376 20.67239767 12.40144025 19.125 15.1875 C16.56668578 20.12095558 15.41585533 24.10160501 15.23046875 29.63671875 C15.125 31.5 15.125 31.5 14.125 32.5 C12.12890625 32.703125 12.12890625 32.703125 9.6875 32.75 C8.88441406 32.77578125 8.08132813 32.8015625 7.25390625 32.828125 C6.55136719 32.71984375 5.84882813 32.6115625 5.125 32.5 C3.125 29.5 3.125 29.5 2.4375 25.6875 C1.40437654 20.4530078 -0.99819119 15.98982702 -3.57495117 11.3737793 C-5.9142615 7.03596512 -5.9142615 7.03596512 -5.70703125 4.20703125 C-4.26503611 1.24857174 -3.24575382 0.56447892 0 0 Z " fill="#F6F7F8" transform="translate(258.875,183.5)"/>
<path d="M0 0 C1.53720703 0.01933594 1.53720703 0.01933594 3.10546875 0.0390625 C4.70068359 0.08933594 4.70068359 0.08933594 6.328125 0.140625 C7.94654297 0.16769531 7.94654297 0.16769531 9.59765625 0.1953125 C12.25871288 0.24241085 14.91796754 0.308169 17.578125 0.390625 C18.7890625 7.0859375 18.7890625 7.0859375 16.890625 9.828125 C14.578125 11.390625 14.578125 11.390625 10.578125 11.390625 C10.58598022 12.29155884 10.58598022 12.29155884 10.59399414 13.21069336 C10.61470514 15.91649338 10.62776625 18.62227677 10.640625 21.328125 C10.64900391 22.27365234 10.65738281 23.21917969 10.66601562 24.19335938 C10.67084961 25.54204102 10.67084961 25.54204102 10.67578125 26.91796875 C10.68363647 28.16694946 10.68363647 28.16694946 10.69165039 29.44116211 C10.578125 31.390625 10.578125 31.390625 9.578125 32.390625 C3.24798146 32.85952452 3.24798146 32.85952452 0.703125 31.078125 C-1.89426953 27.1820332 -1.53878312 23.18551686 -1.484375 18.703125 C-1.47986328 18.00123047 -1.47535156 17.29933594 -1.47070312 16.57617188 C-1.45894427 14.84761962 -1.44100954 13.11911135 -1.421875 11.390625 C-3.1234375 11.4215625 -3.1234375 11.4215625 -4.859375 11.453125 C-8.421875 11.390625 -8.421875 11.390625 -9.421875 10.390625 C-9.81342563 6.86666933 -9.94908018 5.07283646 -7.74121094 2.21582031 C-4.90600667 -0.01533623 -3.56590517 -0.07924234 0 0 Z " fill="#F6F7F7" transform="translate(221.421875,183.609375)"/>
<path d="M0 0 C31.95011341 -0.02282267 63.90022449 -0.04051489 95.85034415 -0.05106533 C99.6241064 -0.05231601 103.39786863 -0.05361033 107.17163086 -0.05493164 C107.92290499 -0.05519395 108.67417912 -0.05545626 109.44821913 -0.05572652 C121.60567782 -0.06007539 133.76313177 -0.06795864 145.92058765 -0.0771528 C158.39935775 -0.08651109 170.87812538 -0.09206023 183.35689884 -0.09408849 C191.05420603 -0.09545919 198.75149983 -0.09978529 206.4488029 -0.10791647 C212.35549223 -0.11383748 218.26217473 -0.11445344 224.16886711 -0.11310768 C226.58876121 -0.11338261 229.00865583 -0.11536935 231.42854691 -0.11920547 C234.73598809 -0.12419107 238.04337227 -0.12298032 241.35081482 -0.12025452 C242.78226992 -0.12462378 242.78226992 -0.12462378 244.2426433 -0.12908131 C249.90612494 -0.11649247 255.38138385 0.27835897 261 1 C261 1.99 261 2.98 261 4 C228.33 4 195.66 4 162 4 C162 3.67 162 3.34 162 3 C179.325 2.505 179.325 2.505 197 2 C99.485 1.505 99.485 1.505 0 1 C0 0.67 0 0.34 0 0 Z " fill="#8C9BA2" transform="translate(20,284)"/>
<path d="M0 0 C2.97 1.65 5.94 3.3 9 5 C7.96532992 9.1386803 6.43050464 11.55025148 4 15 C4.40992188 14.4225 4.81984375 13.845 5.2421875 13.25 C5.78101563 12.5075 6.31984375 11.765 6.875 11 C7.40867187 10.2575 7.94234375 9.515 8.4921875 8.75 C8.98976563 8.1725 9.48734375 7.595 10 7 C10.66 7 11.32 7 12 7 C9.05029464 17.48784128 -3.15967589 26.48691164 -12.078125 31.8515625 C-15.68786121 34.5057803 -17.49227033 37.28105685 -19.6875 41.125 C-20.07542725 41.7857251 -20.46335449 42.4464502 -20.86303711 43.12719727 C-23.75440061 48.20265322 -25.82370527 53.25373265 -27 59 C-27.66 58.34 -28.32 57.68 -29 57 C-28.81205925 50.24916828 -26.53171122 45.10988897 -23.5625 39.125 C-23.15451172 38.27164063 -22.74652344 37.41828125 -22.32617188 36.5390625 C-19.30082325 30.30082325 -19.30082325 30.30082325 -17 28 C-14.4627576 27.14282351 -11.8992748 26.47306186 -9.3125 25.78125 C-6.84105678 25.13678264 -6.84105678 25.13678264 -5 23 C-5.62648438 23.28875 -6.25296875 23.5775 -6.8984375 23.875 C-8.12433594 24.431875 -8.12433594 24.431875 -9.375 25 C-10.18710937 25.37125 -10.99921875 25.7425 -11.8359375 26.125 C-14 27 -14 27 -16 27 C-14.56378083 21.77151674 -12.17093403 17.89573571 -9.125 13.5 C-8.69058594 12.86191406 -8.25617188 12.22382813 -7.80859375 11.56640625 C-6.95348177 10.31070127 -6.09580592 9.05673773 -5.23535156 7.8046875 C-3.46559109 5.21929829 -1.73233123 2.61058288 0 0 Z " fill="#2A4857" transform="translate(363,232)"/>
<path d="M0 0 C9.03266506 4.2905159 15.24701801 10.0010589 19.5 19.1875 C18.3251044 22.91423892 15.78096707 24.94667108 12.875 27.4375 C11.64910156 28.49710937 11.64910156 28.49710937 10.3984375 29.578125 C9.45871094 30.37476563 9.45871094 30.37476563 8.5 31.1875 C8.21511719 30.60742188 7.93023437 30.02734375 7.63671875 29.4296875 C3.37441059 21.02224804 -1.20391517 14.42901607 -10.4375 11.3125 C-11.78685361 10.92053418 -13.13958836 10.53917104 -14.5 10.1875 C-5.47520661 0.4106405 -5.47520661 0.4106405 0 0 Z " fill="#8EC7E1" transform="translate(323.5,314.8125)"/>
<path d="M0 0 C2.42157088 3.92640421 3 7.42066411 3 12 C2.3709375 11.97679687 1.741875 11.95359375 1.09375 11.9296875 C-7.64910636 11.74535017 -13.70534945 12.78953532 -21 18 C-21.66 18 -22.32 18 -23 18 C-23.33 18.99 -23.66 19.98 -24 21 C-24.66 21 -25.32 21 -26 21 C-26.50690584 18.93918639 -27.00524619 16.87626474 -27.5 14.8125 C-27.7784375 13.66394531 -28.056875 12.51539063 -28.34375 11.33203125 C-28.91495385 8.43181171 -29.13283779 5.93903615 -29 3 C-20.38401635 -2.23716653 -9.56666602 -4.68571397 0 0 Z " fill="#8DC6E0" transform="translate(422,338)"/>
<path d="M0 0 C3.78696193 0.45443543 4.79426305 1.43999792 7.125 4.375 C9.1193416 8.3636832 8.30985036 13.42734082 8.3125 17.8125 C8.32474609 18.87533203 8.33699219 19.93816406 8.34960938 21.03320312 C8.35250977 22.56170898 8.35250977 22.56170898 8.35546875 24.12109375 C8.35957764 25.05622803 8.36368652 25.9913623 8.36791992 26.95483398 C8.125 29.375 8.125 29.375 6.125 32.375 C2.98612875 32.77570697 1.00685448 33.00489606 -1.625 31.125 C-4.29340567 27.38923206 -5.12943679 24.63537652 -5.140625 20.0234375 C-5.14320313 19.00765625 -5.14578125 17.991875 -5.1484375 16.9453125 C-5.14070312 15.89085937 -5.13296875 14.83640625 -5.125 13.75 C-5.13273438 12.6878125 -5.14046875 11.625625 -5.1484375 10.53125 C-5.14585937 9.51804688 -5.14328125 8.50484375 -5.140625 7.4609375 C-5.13836914 6.5332959 -5.13611328 5.6056543 -5.13378906 4.64990234 C-4.72312927 1.03997033 -3.49642597 0.45605556 0 0 Z " fill="#EDEFF0" transform="translate(191.875,183.625)"/>
<path d="M0 0 C0.75783783 0.14314636 1.51567566 0.28629272 2.29647827 0.43377686 C4.67914018 0.90816756 7.04789026 1.42733562 9.41796875 1.9609375 C10.70928459 2.24778915 10.70928459 2.24778915 12.02668762 2.54043579 C13.8314184 2.94308856 15.63558861 3.34826155 17.43920898 3.75585938 C20.18859669 4.37524707 22.94077148 4.98095158 25.69335938 5.5859375 C27.45591471 5.98094383 29.21829108 6.37674974 30.98046875 6.7734375 C31.79621872 6.9516806 32.61196869 7.12992371 33.45243835 7.31356812 C44.57464933 9.86197399 44.57464933 9.86197399 48 15 C47.63185884 22.69963317 45.72083096 30.08575047 43.9375 37.5625 C43.65583984 38.76197266 43.37417969 39.96144531 43.08398438 41.19726562 C42.39399438 44.1326468 41.69922991 47.06680871 41 50 C42.65 50 44.3 50 46 50 C46 50.33 46 50.66 46 51 C44.02 51 42.04 51 40 51 C38.8706322 46.85547392 39.21581986 43.9696481 40.21484375 39.81640625 C40.48876953 38.64142578 40.76269531 37.46644531 41.04492188 36.25585938 C41.33947266 35.03705078 41.63402344 33.81824219 41.9375 32.5625 C42.51505537 30.14854907 43.08687617 27.73321731 43.65234375 25.31640625 C43.91007568 24.24849854 44.16780762 23.18059082 44.43334961 22.08032227 C45.00349996 18.98097412 45.10163378 16.14357685 45 13 C43.88367188 12.76925781 42.76734375 12.53851563 41.6171875 12.30078125 C40.03640251 11.97162213 38.45567849 11.64217018 36.875 11.3125 C35.60946289 11.05001465 35.60946289 11.05001465 34.31835938 10.78222656 C29.60368837 9.79411154 24.90903146 8.75257181 20.2265625 7.62109375 C19.27152832 7.39317139 18.31649414 7.16524902 17.33251953 6.93041992 C15.49506092 6.48903075 13.65989538 6.03793997 11.82763672 5.57543945 C5.68377465 4.1099047 -0.69692877 2.99351629 -7 4 C-9.77548187 5.71549885 -10.0590404 7.20236769 -10.9831543 10.36987305 C-11.27512823 11.74807785 -11.55478234 13.12893125 -11.82421875 14.51171875 C-11.97534622 15.23994339 -12.12647369 15.96816803 -12.28218079 16.71846008 C-12.76130296 19.03943327 -13.22457156 21.36324847 -13.6875 23.6875 C-14.01002701 25.26388516 -14.33358283 26.8400602 -14.65820312 28.41601562 C-15.45075022 32.27500926 -16.22909685 36.13662693 -17 40 C-17.99 39.67 -18.98 39.34 -20 39 C-21.51625538 32.28625148 -19.90167492 26.49048906 -18.359375 19.94970703 C-17.87580124 17.87843193 -17.42547116 15.80168292 -16.9765625 13.72265625 C-16.67126742 12.39537251 -16.36404023 11.06853139 -16.0546875 9.7421875 C-15.64452393 7.94563721 -15.64452393 7.94563721 -15.22607422 6.11279297 C-12.11881908 -1.77599696 -7.26986473 -1.45932743 0 0 Z " fill="#193D4F" transform="translate(368,263)"/>
<path d="M0 0 C3.29714793 0.32971479 4.6226839 0.6226839 7 3 C7.39764263 4.98821313 7.73775349 6.98944339 8 9 C8.66 6.36 9.32 3.72 10 1 C12.8125 0.6875 12.8125 0.6875 16 1 C18.96914527 4.76934046 19.47259038 8.0340365 19.75 12.75 C19.82734375 13.89984375 19.9046875 15.0496875 19.984375 16.234375 C19.98953125 17.14703125 19.9946875 18.0596875 20 19 C19 20 19 20 16.5625 20.1875 C14 20 14 20 12 18 C11.67 18.66 11.34 19.32 11 20 C9.35 20 7.7 20 6 20 C5.34 18.35 4.68 16.7 4 15 C3.67 16.65 3.34 18.3 3 20 C0.625 20.125 0.625 20.125 -2 20 C-4 18 -4 18 -4.01171875 16.08203125 C-3.90472656 15.33308594 -3.79773438 14.58414063 -3.6875 13.8125 C-3.57664062 13.01328125 -3.46578125 12.2140625 -3.3515625 11.390625 C-3.23554687 10.60171875 -3.11953125 9.8128125 -3 9 C-2.855625 7.700625 -2.71125 6.40125 -2.5625 5.0625 C-2 2 -2 2 0 0 Z " fill="#9FB9C9" transform="translate(84,238)"/>
<path d="M0 0 C0.13535156 0.54527344 0.27070313 1.09054688 0.41015625 1.65234375 C2.29563544 8.25716605 5.5411199 12.83258553 10 18 C6.19729862 21.80270138 -0.09540421 22.08889677 -5.3125 22.5 C-9 22 -9 22 -11.4375 19.1875 C-13.34141869 15.30350587 -14.12441405 12.58456964 -14.0625 8.3125 C-14.05347656 7.50425781 -14.04445313 6.69601563 -14.03515625 5.86328125 C-14.02355469 5.24839844 -14.01195312 4.63351563 -14 4 C-12.42032193 3.32471777 -10.83608097 2.66010306 -9.25 2 C-8.36828125 1.62875 -7.4865625 1.2575 -6.578125 0.875 C-4 0 -4 0 0 0 Z " fill="#8CC6DF" transform="translate(455,236)"/>
<path d="M0 0 C2.9640585 1.80767693 5.42197673 3.84395345 7 7 C7.39447548 11.18144011 7.45035186 13.30946048 5.125 16.875 C2.28058592 19.71941408 0.6112568 20.20354172 -3.3125 20.375 C-6.82604325 20.30699594 -7.94737005 20.03222242 -11.0625 18.125 C-13.78240438 13.73805744 -14.15390567 10.02773185 -13 5 C-9.93987353 0.15120806 -5.45260342 -0.97367918 0 0 Z " fill="#A2BCCC" transform="translate(227,238)"/>
<path d="M0 0 C4.51417005 1.32769707 8.54636253 3.91367895 11 8 C10.78604048 12.04578011 9.35800191 14.23107711 6.6875 17.1875 C6.09324219 17.86167969 5.49898438 18.53585938 4.88671875 19.23046875 C2.95246394 21.04458351 1.5041022 22.1330091 -1 23 C-4.91994193 22.73273123 -7.66062537 20.32232033 -10.75 18.0625 C-12.22726562 16.99708984 -12.22726562 16.99708984 -13.734375 15.91015625 C-14.48203125 15.27980469 -15.2296875 14.64945313 -16 14 C-16 13.34 -16 12.68 -16 12 C-15.34773438 11.72027344 -14.69546875 11.44054687 -14.0234375 11.15234375 C-7.78414028 8.29036523 -4.10239663 5.5058481 0 0 Z " fill="#8EC7E1" transform="translate(340,210)"/>
<path d="M0 0 C0.76183594 -0.00515625 1.52367187 -0.0103125 2.30859375 -0.015625 C4.84539809 0.28333981 6.41180201 0.88012867 8.5625 2.25 C10.74225966 5.51963949 10.93154422 6.46729678 10.5625 10.25 C10.19125 10.91 9.82 11.57 9.4375 12.25 C8.25939905 14.34393753 8.25939905 14.34393753 9.4375 17 C9.80875 17.7425 10.18 18.485 10.5625 19.25 C9.5625 20.25 9.5625 20.25 7.1875 20.5625 C4.5625 20.25 4.5625 20.25 2.75 18.25 C2.358125 17.59 1.96625 16.93 1.5625 16.25 C0.9025 17.57 0.2425 18.89 -0.4375 20.25 C-2.8125 19.9375 -2.8125 19.9375 -5.4375 19.25 C-7.89052403 15.57046396 -7.73640995 13.56802535 -7.75 9.1875 C-7.76675781 7.93839844 -7.78351563 6.68929687 -7.80078125 5.40234375 C-7.68089844 4.36207031 -7.56101563 3.32179687 -7.4375 2.25 C-4.32763793 0.17675862 -3.54641613 -0.02392186 0 0 Z " fill="#9DB8C8" transform="translate(249.4375,237.75)"/>
<path d="M0 0 C3.63 0 7.26 0 11 0 C13.20597988 4.41195976 13.06469069 10.02417406 13.625 14.875 C13.84542969 16.67130859 13.84542969 16.67130859 14.0703125 18.50390625 C14.204375 19.65503906 14.3384375 20.80617188 14.4765625 21.9921875 C14.60111816 23.04776855 14.72567383 24.10334961 14.85400391 25.19091797 C14.98782797 27.76580041 14.7966231 29.57070113 14 32 C9.6358538 27.95868105 6.48431309 24.49163945 4 19 C3.34 18.67 2.68 18.34 2 18 C-0.74612727 11.79399431 -1.3434821 6.59527576 0 0 Z " fill="#294756" transform="translate(411,247)"/>
<path d="M0 0 C0.04898437 0.72445312 0.09796875 1.44890625 0.1484375 2.1953125 C0.55206152 7.41458867 1.01275807 12.09813658 3 17 C3.66 17 4.32 17 5 17 C5 17.66 5 18.32 5 19 C2.39643759 19.50333542 -0.20776651 20.00279378 -2.8125 20.5 C-3.55048828 20.64308594 -4.28847656 20.78617187 -5.04882812 20.93359375 C-8.07794391 21.50926281 -10.909196 22 -14 22 C-14.33 16.39 -14.66 10.78 -15 5 C-2.25 0 -2.25 0 0 0 Z " fill="#8BC4DD" transform="translate(440,241)"/>
<path d="M0 0 C2.33294775 -0.04241723 4.66702567 -0.04092937 7 0 C8.81115956 1.81115956 8.38199448 4.61278227 8.5625 7.0625 C8.64628906 8.16722656 8.73007813 9.27195313 8.81640625 10.41015625 C8.87699219 11.26480469 8.93757813 12.11945313 9 13 C9.66 12.67 10.32 12.34 11 12 C11.46898963 9.1840151 11.46898963 9.1840151 11.625 5.9375 C11.69976562 4.83277344 11.77453125 3.72804687 11.8515625 2.58984375 C11.90054688 1.73519531 11.94953125 0.88054687 12 0 C13.99954746 -0.04254356 16.00041636 -0.04080783 18 0 C19.86251681 1.86251681 19.30214039 4.7503549 19.375 7.25 C19.31884493 11.51310589 19.24931955 13.55953546 17.125 17.3125 C12.86816414 19.61119136 8.72203131 20.30527695 4 19 C0.91402705 16.19791554 0.06783554 14.61662502 -0.390625 10.44921875 C-0.34421875 9.20785156 -0.2978125 7.96648437 -0.25 6.6875 C-0.21390625 5.43324219 -0.1778125 4.17898437 -0.140625 2.88671875 C-0.07101563 1.45779297 -0.07101563 1.45779297 0 0 Z " fill="#A3BDCD" transform="translate(113,239)"/>
<path d="M0 0 C3.125 0.375 3.125 0.375 5.3125 1.75 C8.86817701 6.89960119 10.51616181 13.12727657 10.125 19.375 C9.125 20.375 9.125 20.375 6.5625 20.4375 C5.758125 20.416875 4.95375 20.39625 4.125 20.375 C3.795 19.385 3.465 18.395 3.125 17.375 C1.14963255 17.72286708 1.14963255 17.72286708 -0.875 18.375 C-1.205 19.035 -1.535 19.695 -1.875 20.375 C-3.54111905 20.417721 -5.20882885 20.41563832 -6.875 20.375 C-7.875 19.375 -7.875 19.375 -8.125 16.4375 C-8.05050569 10.45312374 -6.9019359 0.90025251 0 0 Z " fill="#9FB9C9" transform="translate(173.875,237.625)"/>
<path d="M0 0 C6.8694075 6.68863362 6.8694075 6.68863362 7.1875 9.8828125 C6.69200477 15.80810958 5.15100056 21.20910883 3.25 26.8125 C2.89035156 27.90618896 2.89035156 27.90618896 2.5234375 29.02197266 C0.85957617 33.68228529 -0.91656462 36.96130321 -5 40 C-8.3125 40.3125 -8.3125 40.3125 -11 40 C-10.60167969 39.17757812 -10.20335937 38.35515625 -9.79296875 37.5078125 C-3.80330322 24.88725204 -1.3588634 13.78047358 0 0 Z " fill="#8CC5DF" transform="translate(465,189)"/>
<path d="M0 0 C0.81339844 0.36738281 1.62679688 0.73476563 2.46484375 1.11328125 C-0.34142766 4.42216844 -4.07084207 6.2523722 -7.78515625 8.36328125 C-13.55771657 11.71124211 -18.00454131 15.16121375 -22.53515625 20.11328125 C-23.19515625 20.11328125 -23.85515625 20.11328125 -24.53515625 20.11328125 C-25.85515625 17.14328125 -27.17515625 14.17328125 -28.53515625 11.11328125 C-11.88612627 -4.10465778 -11.88612627 -4.10465778 0 0 Z " fill="#54829D" transform="translate(368.53515625,312.88671875)"/>
<path d="M0 0 C3.45281166 1.15093722 4.38082163 2.3205993 6.6875 5.0625 C7.31011719 5.79597656 7.93273437 6.52945313 8.57421875 7.28515625 C9.27998047 8.13400391 9.27998047 8.13400391 10 9 C8.6744419 12.62276315 7.05653045 15.63505348 4.875 18.8125 C4.33617187 19.60269531 3.79734375 20.39289063 3.2421875 21.20703125 C2.83226562 21.79871094 2.42234375 22.39039063 2 23 C-1.42946293 21.38325319 -4.56263052 19.42402323 -7.75 17.375 C-8.73484375 16.74335938 -9.7196875 16.11171875 -10.734375 15.4609375 C-11.85585938 14.73777344 -11.85585938 14.73777344 -13 14 C-12.22914063 13.39027344 -11.45828125 12.78054687 -10.6640625 12.15234375 C-6.2174707 8.55986269 -2.7389896 5.04550716 0 0 Z " fill="#8CC6DF" transform="translate(352,221)"/>
<path d="M0 0 C0.66 0.33 1.32 0.66 2 1 C1.566875 2.31097656 1.566875 2.31097656 1.125 3.6484375 C-2.64014524 16.12048111 -3.08021823 28.14661909 -1 41 C-4.37229879 39.81513826 -6.83642023 38.89495791 -9 36 C-9.6338352 31.91981436 -9.59980187 27.83882658 -9.61083984 23.71313477 C-9.62489355 21.7027275 -9.692157 19.69860367 -9.76171875 17.68945312 C-9.8288427 8.20100311 -9.8288427 8.20100311 -7.46777344 4.77978516 C-5.12111573 2.74061633 -2.76620982 1.38310491 0 0 Z " fill="#8CC5DF" transform="translate(349,169)"/>
<path d="M0 0 C0.33 0 0.66 0 1 0 C1.15418887 4.31728845 1.12007788 7.54247007 0.01171875 11.765625 C-1.08886572 15.97212935 -1.34610114 19.91495122 -1.3125 24.25 C-1.30903564 24.98508789 -1.30557129 25.72017578 -1.30200195 26.47753906 C-1.11465945 35.97921951 0.45995163 45.20052029 7.1875 52.3125 C7.785625 52.869375 8.38375 53.42625 9 54 C8.67 54.99 8.34 55.98 8 57 C7.071875 55.7934375 7.071875 55.7934375 6.125 54.5625 C4.25835959 51.96125481 4.25835959 51.96125481 2 51 C1.773125 51.721875 1.54625 52.44375 1.3125 53.1875 C-0.24831013 56.53209313 -2.3031287 58.51603959 -5 61 C-5 57.05774925 -3.42679247 55.7609112 -0.99609375 52.81640625 C0.18511837 51.0481935 0.18511837 51.0481935 -0.1328125 48.9765625 C-1.18904335 46.56911741 -2.40037785 45.45998548 -4.4375 43.8125 C-5.05496094 43.30332031 -5.67242187 42.79414063 -6.30859375 42.26953125 C-7.98279746 40.93391424 -7.98279746 40.93391424 -10 40 C-10.26554687 40.59683594 -10.53109375 41.19367188 -10.8046875 41.80859375 C-14.2659831 48.15430234 -20.39021164 50.91269841 -27 53 C-27 52.34 -27 51.68 -27 51 C-26.34773438 50.72027344 -25.69546875 50.44054687 -25.0234375 50.15234375 C-19.48703577 47.61278484 -13.60263714 44.8529894 -11 39 C-11.29132134 36.99344998 -11.63403333 34.99428672 -12 33 C-11.99682428 29.86556079 -11.77938238 26.7510978 -11.5625 23.625 C-11.51029297 22.79355469 -11.45808594 21.96210938 -11.40429688 21.10546875 C-11.27561269 19.06991892 -11.13864593 17.03489559 -11 15 C-10.67 15 -10.34 15 -10 15 C-9.99589111 15.58491211 -9.99178223 16.16982422 -9.98754883 16.77246094 C-9.95457339 19.43265566 -9.88393093 22.09057155 -9.8125 24.75 C-9.80669922 25.67039063 -9.80089844 26.59078125 -9.79492188 27.5390625 C-9.68693045 33.16011757 -9.68693045 33.16011757 -6.51171875 37.640625 C-4.32942045 39.07932911 -4.32942045 39.07932911 -3 39 C-3.15855469 38.18402344 -3.31710937 37.36804688 -3.48046875 36.52734375 C-5.35137436 23.82487933 -4.00901069 12.13441628 0 0 Z " fill="#16394B" transform="translate(350,170)"/>
<path d="M0 0 C0.99 0.66 1.98 1.32 3 2 C2.67 3.65 2.34 5.3 2 7 C0.02 7 -1.96 7 -4 7 C-2.865625 7.474375 -1.73125 7.94875 -0.5625 8.4375 C3 10 3 10 4 11 C4.46386555 16.33445378 4.46386555 16.33445378 2.83203125 18.67578125 C0.30463345 20.50262103 -1.47340801 20.36597296 -4.5625 20.3125 C-5.53316406 20.30863281 -6.50382812 20.30476563 -7.50390625 20.30078125 C-10 20 -10 20 -12 18 C-11.625 15.375 -11.625 15.375 -11 13 C-8.36 13.33 -5.72 13.66 -3 14 C-3 13.34 -3 12.68 -3 12 C-3.763125 12.061875 -4.52625 12.12375 -5.3125 12.1875 C-8 12 -8 12 -9.8125 10.875 C-11.57002414 8.09996189 -11.46822746 6.21070255 -11 3 C-7.92792827 -0.68648607 -4.54868482 -0.4135168 0 0 Z " fill="#A0BACA" transform="translate(51,238)"/>
<path d="M0 0 C0.62003906 0.43570312 1.24007813 0.87140625 1.87890625 1.3203125 C22.18821395 14.97810021 47.38308696 20.25197099 71.5625 20.0625 C72.66658203 20.05798828 73.77066406 20.05347656 74.90820312 20.04882812 C77.605527 20.0371514 80.30273347 20.02077525 83 20 C82.505 22.475 82.505 22.475 82 25 C78.54173658 25.05789006 75.08359707 25.09355821 71.625 25.125 C70.64015625 25.14175781 69.6553125 25.15851563 68.640625 25.17578125 C67.22910156 25.18544922 67.22910156 25.18544922 65.7890625 25.1953125 C64.48509521 25.21102295 64.48509521 25.21102295 63.15478516 25.22705078 C61 25 61 25 59 23 C57.07710018 22.43540004 57.07710018 22.43540004 54.84375 22.10546875 C53.99538574 21.9573877 53.14702148 21.80930664 52.27294922 21.65673828 C51.35787598 21.50188965 50.44280273 21.34704102 49.5 21.1875 C39.45842359 19.37717316 29.76042436 16.95278522 20 14 C19.14438477 13.74395996 18.28876953 13.48791992 17.40722656 13.22412109 C14.76822399 12.43049755 12.13338001 11.62457086 9.5 10.8125 C8.67999512 10.56258301 7.85999023 10.31266602 7.01513672 10.05517578 C1.23497027 8.23497027 1.23497027 8.23497027 -1 6 C-0.625 2.875 -0.625 2.875 0 0 Z " fill="#5887A0" transform="translate(335,295)"/>
<path d="M0 0 C0.66 0 1.32 0 2 0 C1.95825876 10.22660397 -1.33517155 19.50275733 -7 28 C-5.02 28.66 -3.04 29.32 -1 30 C-1.70125 30.474375 -2.4025 30.94875 -3.125 31.4375 C-5.18378173 33.73360296 -5.18378173 33.73360296 -5.03125 35.953125 C-3.74902913 43.00533977 -0.03712255 48.96287745 5 54 C2 54 2 54 0.24609375 52.34765625 C-4.04117721 46.93069403 -6.02130322 42.85087748 -7 36 C-13.435 37.98 -13.435 37.98 -20 40 C-20.30892376 46.59037352 -19.63810009 50.95435395 -17 57 C-17.99 57.495 -17.99 57.495 -19 58 C-21.62215126 53.43056751 -22.44010215 49.86983432 -22.6875 44.625 C-22.75324219 43.37976563 -22.81898438 42.13453125 -22.88671875 40.8515625 C-22.92410156 39.91054687 -22.96148437 38.96953125 -23 38 C-21.85144531 37.31744141 -21.85144531 37.31744141 -20.6796875 36.62109375 C-8.92808469 29.51188797 -4.23824834 17.97040329 -1 5 C-0.65235286 3.33626013 -0.31378749 1.67045691 0 0 Z " fill="#0F3142" transform="translate(462,200)"/>
<path d="M0 0 C25.41 0 50.82 0 77 0 C77 0.33 77 0.66 77 1 C106.7 1.495 106.7 1.495 137 2 C137 2.33 137 2.66 137 3 C102.16396141 3.10199027 67.33228589 3.14565857 32.5 2.5625 C31.2445639 2.54285187 29.98912781 2.52320374 28.69564819 2.50296021 C25.16155903 2.44624706 21.62766881 2.38281887 18.09375 2.31640625 C17.0646199 2.29968872 16.03548981 2.28297119 14.97517395 2.26574707 C9.8941859 2.15955628 5.01115715 1.85742398 0 1 C0 0.67 0 0.34 0 0 Z " fill="#C4CBCF" transform="translate(18,285)"/>
<path d="M0 0 C1.27617187 0.02320313 2.55234375 0.04640625 3.8671875 0.0703125 C5.78917969 0.09738281 5.78917969 0.09738281 7.75 0.125 C9.23113281 0.15980469 9.23113281 0.15980469 10.7421875 0.1953125 C10.7421875 2.1753125 10.7421875 4.1553125 10.7421875 6.1953125 C9.4221875 6.5253125 8.1021875 6.8553125 6.7421875 7.1953125 C6.7421875 11.1553125 6.7421875 15.1153125 6.7421875 19.1953125 C1.7421875 20.1953125 1.7421875 20.1953125 -0.05859375 19.08203125 C-1.64337627 16.58870891 -1.55951333 14.93896706 -1.4453125 12.0078125 C-1.41824219 11.10675781 -1.39117187 10.20570313 -1.36328125 9.27734375 C-1.32847656 8.59027344 -1.29367188 7.90320313 -1.2578125 7.1953125 C-2.5778125 7.1953125 -3.8978125 7.1953125 -5.2578125 7.1953125 C-5.3828125 4.8203125 -5.3828125 4.8203125 -5.2578125 2.1953125 C-3.2578125 0.1953125 -3.2578125 0.1953125 0 0 Z " fill="#9BB6C6" transform="translate(195.2578125,237.8046875)"/>
<path d="M0 0 C2.875 -0.125 2.875 -0.125 6 0 C8 2 8 2 8.1953125 4.3828125 C8.17210937 5.28773438 8.14890625 6.19265625 8.125 7.125 C8.10695312 8.03507813 8.08890625 8.94515625 8.0703125 9.8828125 C8.04710937 10.58148438 8.02390625 11.28015625 8 12 C10.64 12 13.28 12 16 12 C16.125 14.375 16.125 14.375 16 17 C13.40599494 19.59400506 12.16815384 19.32711615 8.5625 19.375 C7.11037109 19.41753906 7.11037109 19.41753906 5.62890625 19.4609375 C3 19 3 19 1.1640625 17.4609375 C-0.44226843 14.06500298 -0.3227656 10.91951284 -0.1875 7.25 C-0.17396484 6.55261719 -0.16042969 5.85523438 -0.14648438 5.13671875 C-0.1112945 3.42414459 -0.05749155 1.71197059 0 0 Z " fill="#9DB7C7" transform="translate(141,239)"/>
<path d="M0 0 C0.33 0 0.66 0 1 0 C1.18175781 0.62648438 1.36351562 1.25296875 1.55078125 1.8984375 C1.80214844 2.71570313 2.05351562 3.53296875 2.3125 4.375 C2.55613281 5.18710937 2.79976563 5.99921875 3.05078125 6.8359375 C3.91368185 9.33184629 3.91368185 9.33184629 7 11 C9.22485741 11.27478373 9.22485741 11.27478373 11.66796875 11.1953125 C12.56064453 11.18886719 13.45332031 11.18242187 14.37304688 11.17578125 C15.76620117 11.15064453 15.76620117 11.15064453 17.1875 11.125 C18.12787109 11.11597656 19.06824219 11.10695313 20.03710938 11.09765625 C22.35832968 11.07409056 24.67903644 11.04119116 27 11 C22.07976759 16.17729877 15.26823028 17.17352367 8.3125 17.375 C3.5167276 17.23894972 0.17173853 16.35793917 -4 14 C-5.45147903 11.09704195 -5.37239025 9.22738221 -5 6 C-3.53907679 3.66885177 -1.94382 1.99123024 0 0 Z " fill="#55829D" transform="translate(403,355)"/>
<path d="M0 0 C0.66 0 1.32 0 2 0 C-0.94970536 10.48784128 -13.15967589 19.48691164 -22.078125 24.8515625 C-25.68786121 27.5057803 -27.49227033 30.28105685 -29.6875 34.125 C-30.07542725 34.7857251 -30.46335449 35.4464502 -30.86303711 36.12719727 C-33.75440061 41.20265322 -35.82370527 46.25373265 -37 52 C-37.66 51.34 -38.32 50.68 -39 50 C-38.81205925 43.24916828 -36.53171122 38.10988897 -33.5625 32.125 C-33.15451172 31.27164062 -32.74652344 30.41828125 -32.32617188 29.5390625 C-29.30082325 23.30082325 -29.30082325 23.30082325 -27 21 C-25.5113968 20.58204603 -24.00855545 20.21394758 -22.5 19.875 C-12.75907113 17.04970894 -6.62821899 10.29119569 -1.375 1.90625 C-0.92125 1.2771875 -0.4675 0.648125 0 0 Z " fill="#54829C" transform="translate(373,239)"/>
<path d="M0 0 C3.09592835 3.5087188 4.74194623 6.49197399 6 11 C2.27856704 14.91447559 -1.14032976 18.49653351 -6 21 C-6.27714844 20.30132812 -6.55429687 19.60265625 -6.83984375 18.8828125 C-7.20207031 17.97273438 -7.56429688 17.06265625 -7.9375 16.125 C-8.29714844 15.22007812 -8.65679687 14.31515625 -9.02734375 13.3828125 C-9.94901262 11.03862333 -9.94901262 11.03862333 -11 9 C-10.28972656 8.51789063 -9.57945312 8.03578125 -8.84765625 7.5390625 C-7.92855469 6.90742188 -7.00945312 6.27578125 -6.0625 5.625 C-5.14597656 4.99851562 -4.22945313 4.37203125 -3.28515625 3.7265625 C-0.91612836 2.20228929 -0.91612836 2.20228929 0 0 Z " fill="#53819C" transform="translate(337,325)"/>
<path d="M0 0 C3.4375 1 3.4375 1 5.4375 2.625 C6.90731805 6.11581787 6.42163921 8.39148956 5.4375 12 C3.31878452 14.34572071 2.0349873 14.89543972 -1.0625 15.4375 C-3.5625 15 -3.5625 15 -5.875 13.4375 C-8.20476201 10.07228821 -8.13539582 8.01027077 -7.5625 4 C-5.30132583 0.38212133 -4.292718 0 0 0 Z " fill="#3C667C" transform="translate(365.5625,270)"/>
<path d="M0 0 C0.66 0 1.32 0 2 0 C2.29132813 0.845625 2.58265625 1.69125 2.8828125 2.5625 C7.54190545 15.4555874 13.19771442 23.09161771 25.64453125 29.32421875 C27.74694544 30.26782197 29.85252441 31.1648706 32 32 C32 32.66 32 33.32 32 34 C24.83130036 34.95582662 19.87288701 31.90659593 14 28 C6.62056865 22.32032531 2.28855538 13.94617101 0 5 C-0.125 2.125 -0.125 2.125 0 0 Z " fill="#EEF0F1" transform="translate(360,204)"/>
<path d="M0 0 C1.11761719 -0.00257813 2.23523438 -0.00515625 3.38671875 -0.0078125 C4.54042969 -0.00007812 5.69414062 0.00765625 6.8828125 0.015625 C8.02878906 0.00789062 9.17476563 0.00015625 10.35546875 -0.0078125 C23.24090602 0.02184328 35.02824014 3.43389108 46.0078125 10.265625 C44.0078125 11.265625 44.0078125 11.265625 42.16357422 10.84423828 C41.42896973 10.59399902 40.69436523 10.34375977 39.9375 10.0859375 C39.1228125 9.81652344 38.308125 9.54710937 37.46875 9.26953125 C35.76818242 8.69154378 34.06766027 8.11342261 32.3671875 7.53515625 C21.89841864 4.07291451 11.90571204 4.13759418 1.0078125 4.203125 C-0.44921721 4.20814924 -1.9062486 4.21271051 -3.36328125 4.21679688 C-6.9062852 4.22773112 -10.44922547 4.244945 -13.9921875 4.265625 C-10.12034272 0.39378022 -5.27423685 0.01181618 0 0 Z " fill="#F1F6F8" transform="translate(394.9921875,133.734375)"/>
<path d="M0 0 C1.43791516 0.14168137 2.8753237 0.28851043 4.3125 0.4375 C5.11300781 0.51871094 5.91351563 0.59992188 6.73828125 0.68359375 C9 1 9 1 12 2 C13.04691167 4.30615472 13.89744996 6.48336816 14.6875 8.875 C14.91244141 9.51308594 15.13738281 10.15117187 15.36914062 10.80859375 C16.350435 13.66597979 17 15.95856532 17 19 C14.35261084 20.4606285 13.10551666 21 10 21 C9.78085937 20.21496094 9.56171875 19.42992187 9.3359375 18.62109375 C7.23098394 11.64736548 5.02005246 7.24823666 0 2 C0 1.34 0 0.68 0 0 Z " fill="#54829D" transform="translate(381,317)"/>
<path d="M0 0 C1.65 4.95 3.3 9.9 5 15 C1 18 1 18 -1 18 C-1.33 18.99 -1.66 19.98 -2 21 C-2.66 21 -3.32 21 -4 21 C-4.50690584 18.93918639 -5.00524619 16.87626474 -5.5 14.8125 C-5.7784375 13.66394531 -6.056875 12.51539063 -6.34375 11.33203125 C-6.92129512 8.39961464 -7.32831348 5.96541209 -7 3 C-4.6167054 1.18116991 -3.04181663 0 0 0 Z " fill="#54829C" transform="translate(400,338)"/>
<path d="M0 0 C1.19109375 0.25136719 2.3821875 0.50273437 3.609375 0.76171875 C4.28419922 0.89884277 4.95902344 1.0359668 5.65429688 1.17724609 C7.79107928 1.6192206 9.91887279 2.09186179 12.046875 2.57421875 C13.05754028 2.78522217 13.05754028 2.78522217 14.08862305 3.00048828 C18.89942645 4.15315798 21.8308591 5.62432628 24.609375 9.76171875 C24.61266396 13.10001639 24.31680558 15.54990201 23.609375 18.76171875 C23.39007324 19.80473145 23.17077148 20.84774414 22.94482422 21.92236328 C22.18357319 25.39959046 21.37272113 28.86179659 20.546875 32.32421875 C20.26521484 33.52369141 19.98355469 34.72316406 19.69335938 35.95898438 C19.00336938 38.89436555 18.30860491 41.82852746 17.609375 44.76171875 C19.259375 44.76171875 20.909375 44.76171875 22.609375 44.76171875 C22.609375 45.09171875 22.609375 45.42171875 22.609375 45.76171875 C20.629375 45.76171875 18.649375 45.76171875 16.609375 45.76171875 C15.4800072 41.61719267 15.82519486 38.73136685 16.82421875 34.578125 C17.09814453 33.40314453 17.37207031 32.22816406 17.65429688 31.01757812 C17.94884766 29.79876953 18.24339844 28.57996094 18.546875 27.32421875 C19.12443037 24.91026782 19.69625117 22.49493606 20.26171875 20.078125 C20.64831665 18.47626343 20.64831665 18.47626343 21.04272461 16.84204102 C21.61287496 13.74269287 21.71100878 10.9052956 21.609375 7.76171875 C20.40023438 7.50777344 19.19109375 7.25382812 17.9453125 6.9921875 C8.16217227 4.9359544 -1.61772199 2.86616116 -11.390625 0.76171875 C-7.18355914 -2.04299183 -4.8080431 -0.92056435 0 0 Z " fill="#254C5E" transform="translate(391.390625,268.23828125)"/>
<path d="M0 0 C3.18207231 2.30700243 4.73315367 3.64934704 5.5078125 7.5703125 C5.69544238 12.16099033 5.68562893 15.86105483 2.75 19.5625 C-0.91936914 22.81489538 -3.57131135 24.29060465 -8.5 24.375 C-9.2528125 24.40335938 -10.005625 24.43171875 -10.78125 24.4609375 C-13.79706729 23.83441208 -15.01803646 22.27925808 -17 20 C-16.19175781 19.91363281 -15.38351562 19.82726562 -14.55078125 19.73828125 C-9.83640452 19.11841748 -5.92988161 18.51858782 -1.75 16.1875 C1.07141621 11.0484919 0.37774159 5.73327789 0 0 Z " fill="#54819C" transform="translate(480,230)"/>
<path d="M0 0 C0.556875 0.309375 1.11375 0.61875 1.6875 0.9375 C4.12540433 2.05761821 6.36224186 2.56037364 9 3 C9 3.99 9 4.98 9 6 C15.95386355 8.11582009 22.92938353 10.13415831 29.9375 12.0625 C31.30551758 12.44631836 31.30551758 12.44631836 32.70117188 12.83789062 C41.94660292 15.37956743 51.09983632 17.18291752 60.6875 17.625 C61.40099609 17.66367187 62.11449219 17.70234375 62.84960938 17.7421875 C64.56608348 17.83434718 66.28300408 17.9181357 68 18 C68 18.66 68 19.32 68 20 C44.91815771 20.67998881 18.25312335 15.33128601 -1 2 C-0.67 1.34 -0.34 0.68 0 0 Z " fill="#153849" transform="translate(339,296)"/>
<path d="M0 0 C2.89073905 2.39719824 3.52680725 4.1731393 3.9375 7.875 C4.18264596 11.44265612 4.08571568 12.82142566 2.5 16.125 C0 18 0 18 -3.1875 18.6875 C-8.39932155 17.74766333 -11.84106301 15.1687139 -16 12 C-13.47946405 10.73973202 -12.1457902 11.08125555 -9.375 11.4375 C-8.55773437 11.53933594 -7.74046875 11.64117187 -6.8984375 11.74609375 C-6.27195312 11.82988281 -5.64546875 11.91367187 -5 12 C-4.3490741 10.75264433 -3.70448331 9.50198168 -3.0625 8.25 C-2.70285156 7.55390625 -2.34320313 6.8578125 -1.97265625 6.140625 C-1.04441818 4.09775567 -0.46833422 2.18884624 0 0 Z " fill="#54829D" transform="translate(325,337)"/>
<path d="M0 0 C4.70588235 0.70588235 4.70588235 0.70588235 6 2 C6.08631874 3.34267413 6.10706473 4.68974322 6.09765625 6.03515625 C6.09282227 7.24848633 6.09282227 7.24848633 6.08789062 8.48632812 C6.07951172 9.33646484 6.07113281 10.18660156 6.0625 11.0625 C6.05798828 11.91650391 6.05347656 12.77050781 6.04882812 13.65039062 C6.03700373 15.76695663 6.01906769 17.88348685 6 20 C3.625 20.125 3.625 20.125 1 20 C-1 18 -1 18 -1.23046875 14.12109375 C-1.22647576 12.55983524 -1.21171261 10.99857586 -1.1875 9.4375 C-1.18685547 8.64408203 -1.18621094 7.85066406 -1.18554688 7.03320312 C-1.14025522 1.14025522 -1.14025522 1.14025522 0 0 Z " fill="#A2BCCC" transform="translate(65,238)"/>
<path d="M0 0 C3 3.75 3 3.75 3 6 C3.66 6 4.32 6 5 6 C5 6.66 5 7.32 5 8 C2.39643759 8.50333542 -0.20776651 9.00279378 -2.8125 9.5 C-3.55048828 9.64308594 -4.28847656 9.78617187 -5.04882812 9.93359375 C-8.07794391 10.50926281 -10.909196 11 -14 11 C-14 8.69 -14 6.38 -14 4 C-12.4176994 3.66179834 -10.83410625 3.32964061 -9.25 3 C-8.36828125 2.814375 -7.4865625 2.62875 -6.578125 2.4375 C-4 2 -4 2 0 2 C0 1.34 0 0.68 0 0 Z " fill="#53819B" transform="translate(440,252)"/>
<path d="M0 0 C2.1640625 0.0234375 2.1640625 0.0234375 4.625 0.375 C5.85089844 0.54128906 5.85089844 0.54128906 7.1015625 0.7109375 C7.72804688 0.80632812 8.35453125 0.90171875 9 1 C9 1.33 9 1.66 9 2 C6.36 2.66 3.72 3.32 1 4 C-1.24538394 11.83493596 -3.06873706 19.7012768 -4.6875 27.6875 C-4.91244141 28.78255859 -5.13738281 29.87761719 -5.36914062 31.00585938 C-5.91591784 33.66994412 -6.45948567 36.33463885 -7 39 C-7.99 38.67 -8.98 38.34 -10 38 C-10.33 36.02 -10.66 34.04 -11 32 C-10.34 31.67 -9.68 31.34 -9 31 C-8.28336676 29.12607116 -8.28336676 29.12607116 -7.78125 26.84375 C-7.57113281 25.98523438 -7.36101562 25.12671875 -7.14453125 24.2421875 C-6.82548828 22.88480469 -6.82548828 22.88480469 -6.5 21.5 C-6.28730469 20.62601562 -6.07460938 19.75203125 -5.85546875 18.8515625 C-5.01539461 15.37788171 -4.18590467 11.90765222 -3.46875 8.40625 C-3.30375 7.601875 -3.13875 6.7975 -2.96875 5.96875 C-2.82888672 5.25138672 -2.68902344 4.53402344 -2.54492188 3.79492188 C-2 2 -2 2 0 0 Z " fill="#55839E" transform="translate(358,264)"/>
<path d="M0 0 C0.66 0.33 1.32 0.66 2 1 C1.566875 2.31097656 1.566875 2.31097656 1.125 3.6484375 C-2.64014524 16.12048111 -3.08021823 28.14661909 -1 41 C-2.9375 40.4375 -2.9375 40.4375 -5 39 C-5.66595738 36.50265984 -5.89051832 34.5574921 -6 32 C-6.06316406 31.1028125 -6.12632812 30.205625 -6.19140625 29.28125 C-6.46256769 22.35351264 -5.60203821 15.98719147 -4.125 9.25 C-3.95137939 8.45102295 -3.77775879 7.6520459 -3.59887695 6.82885742 C-3.13826808 4.86749334 -2.57737968 2.9302182 -2 1 C-1.34 0.67 -0.68 0.34 0 0 Z " fill="#5E8EA9" transform="translate(349,169)"/>
<path d="M0 0 C1.52734375 1.01953125 1.52734375 1.01953125 3 3 C3.0521442 5.70843108 2.92094556 8.02776873 2.5625 10.6875 C2.46831787 11.43410889 2.37413574 12.18071777 2.27709961 12.94995117 C0.93104047 22.15947299 -1.90311135 32.77473196 -8 40 C-8.99 39.67 -9.98 39.34 -11 39 C-10.60167969 38.24976563 -10.20335937 37.49953125 -9.79296875 36.7265625 C-3.46183885 24.49562056 -1.33632027 13.55185967 0 0 Z " fill="#56849F" transform="translate(465,189)"/>
<path d="M0 0 C1.65 1.65 3.3 3.3 5 5 C1.1758728 8.8241272 -5.13009983 9.09755277 -10.375 9.4375 C-11.57125 9.293125 -12.7675 9.14875 -14 9 C-15.7265625 6.47265625 -15.7265625 6.47265625 -17 4 C-15.10507994 3.66151348 -13.20901534 3.32943089 -11.3125 3 C-9.72888672 2.7215625 -9.72888672 2.7215625 -8.11328125 2.4375 C-5.35095938 2.04931926 -2.78257957 1.91740024 0 2 C0 1.34 0 0.68 0 0 Z " fill="#55839E" transform="translate(460,249)"/>
<path d="M0 0 C0.33 0 0.66 0 1 0 C1.12117188 0.58007812 1.24234375 1.16015625 1.3671875 1.7578125 C2.69937453 8.53631156 2.69937453 8.53631156 5 15 C7.2029802 16.38249718 7.2029802 16.38249718 10 17 C11.258125 17.37125 12.51625 17.7425 13.8125 18.125 C14.864375 18.41375 15.91625 18.7025 17 19 C13.46569344 21.35620437 12.16428713 21.48991613 8 21 C3.24439308 18.5270844 0.43627381 15.77884478 -2 11 C-2.4430704 6.71698615 -2.34728069 3.66762608 0 0 Z " fill="#52809A" transform="translate(311,200)"/>
<path d="M0 0 C0.42410156 0.38671875 0.84820312 0.7734375 1.28515625 1.171875 C5.30304806 4.7394097 9.25403771 7.48173429 14 10 C12.25 11.5625 12.25 11.5625 10 13 C6.06662645 12.63771559 3.36256521 10.33928381 0.25 8.0625 C-0.73484375 7.35222656 -1.7196875 6.64195312 -2.734375 5.91015625 C-3.48203125 5.27980469 -4.2296875 4.64945313 -5 4 C-5 3.34 -5 2.68 -5 2 C-3.35 1.34 -1.7 0.68 0 0 Z " fill="#53809A" transform="translate(329,220)"/>
<path d="M0 0 C-0.33 1.65 -0.66 3.3 -1 5 C-4.45826342 5.05789006 -7.91640293 5.09355821 -11.375 5.125 C-12.35984375 5.14175781 -13.3446875 5.15851563 -14.359375 5.17578125 C-15.30039062 5.18222656 -16.24140625 5.18867188 -17.2109375 5.1953125 C-18.51490479 5.21102295 -18.51490479 5.21102295 -19.84521484 5.22705078 C-22 5 -22 5 -24 3 C-24.99 2.34 -25.98 1.68 -27 1 C-23.06254264 0.83231578 -19.12502757 0.6660268 -15.1875 0.5 C-14.06794922 0.45230469 -12.94839844 0.40460938 -11.79492188 0.35546875 C-10.72177734 0.31035156 -9.64863281 0.26523437 -8.54296875 0.21875 C-7.55321045 0.17685547 -6.56345215 0.13496094 -5.54370117 0.09179688 C-3.69674974 0.02514425 -1.84815371 0 0 0 Z " fill="#507E96" transform="translate(418,315)"/>
<path d="M0 0 C0.66 0 1.32 0 2 0 C2.06058594 0.62648438 2.12117188 1.25296875 2.18359375 1.8984375 C2.26738281 2.71570313 2.35117187 3.53296875 2.4375 4.375 C2.55931641 5.59316406 2.55931641 5.59316406 2.68359375 6.8359375 C2.89090114 9.04272805 2.89090114 9.04272805 4 11 C6.01669827 12.13350534 6.01669827 12.13350534 8 13 C7.195625 13.28875 6.39125 13.5775 5.5625 13.875 C2.4648498 16.44378309 2.54951905 17.30950809 2.1875 21.1875 C2.1026414 22.79063941 2.03312469 24.39495804 2 26 C1.34 25.67 0.68 25.34 0 25 C-0.4140625 22.71484375 -0.4140625 22.71484375 -0.625 19.9375 C-0.69976562 19.01839844 -0.77453125 18.09929687 -0.8515625 17.15234375 C-0.90054687 16.44207031 -0.94953125 15.73179687 -1 15 C-3.31 14.34 -5.62 13.68 -8 13 C-8 12.67 -8 12.34 -8 12 C-5.69 11.34 -3.38 10.68 -1 10 C-0.67 6.7 -0.34 3.4 0 0 Z " fill="#CDD3D6" transform="translate(454,302)"/>
<path d="M0 0 C0.66 0 1.32 0 2 0 C2.08636719 0.77085937 2.17273438 1.54171875 2.26171875 2.3359375 C2.40222656 3.33882812 2.54273438 4.34171875 2.6875 5.375 C2.81511719 6.37273437 2.94273437 7.37046875 3.07421875 8.3984375 C3.75510016 11.24418405 3.75510016 11.24418405 6.58203125 12.3515625 C7.37996094 12.56554687 8.17789062 12.77953125 9 13 C9 13.33 9 13.66 9 14 C7.02 14 5.04 14 3 14 C2.67 17.96 2.34 21.92 2 26 C1.34 26 0.68 26 0 26 C-0.33 22.04 -0.66 18.08 -1 14 C-1.66 14 -2.32 14 -3 14 C-2.68289063 13.44828125 -2.36578125 12.8965625 -2.0390625 12.328125 C-0.87290025 9.71522011 -0.59954289 7.59420998 -0.375 4.75 C-0.30023438 3.85796875 -0.22546875 2.9659375 -0.1484375 2.046875 C-0.09945313 1.37140625 -0.05046875 0.6959375 0 0 Z " fill="#C7CED2" transform="translate(306,233)"/>
<path d="M0 0 C15.84 0 31.68 0 48 0 C48 0.99 48 1.98 48 3 C46.79730469 2.93941406 45.59460938 2.87882812 44.35546875 2.81640625 C29.57465605 2.08567275 14.78947382 1.52344672 0 1 C0 0.67 0 0.34 0 0 Z " fill="#DEE2E4" transform="translate(233,285)"/>
<path d="M0 0 C0.66 0 1.32 0 2 0 C1.95825876 10.22660397 -1.33517155 19.50275733 -7 28 C-6.01 28.66 -5.02 29.32 -4 30 C-6.31 29.67 -8.62 29.34 -11 29 C-10.54109375 28.16339844 -10.0821875 27.32679688 -9.609375 26.46484375 C-5.03895612 17.79449029 -2.15808264 9.57062737 0 0 Z " fill="#173A4C" transform="translate(462,200)"/>
<path d="M0 0 C0.33 0 0.66 0 1 0 C1.66 3.96 2.32 7.92 3 12 C4.65 12 6.3 12 8 12 C8.33 12.66 8.66 13.32 9 14 C8.030625 14.12375 7.06125 14.2475 6.0625 14.375 C5.051875 14.58125 4.04125 14.7875 3 15 C1.85185003 17.29629994 1.69230191 19.07698086 1.4375 21.625 C1.35371094 22.44226563 1.26992188 23.25953125 1.18359375 24.1015625 C1.12300781 24.72804688 1.06242187 25.35453125 1 26 C0.67 26 0.34 26 0 26 C-0.33 22.7 -0.66 19.4 -1 16 C-3.31 15.01 -5.62 14.02 -8 13 C-8 12.67 -8 12.34 -8 12 C-6.5459375 11.814375 -6.5459375 11.814375 -5.0625 11.625 C-4.051875 11.41875 -3.04125 11.2125 -2 11 C-0.85185003 8.70370006 -0.69230191 6.92301914 -0.4375 4.375 C-0.35371094 3.55773437 -0.26992188 2.74046875 -0.18359375 1.8984375 C-0.12300781 1.27195312 -0.06242187 0.64546875 0 0 Z " fill="#DADFE1" transform="translate(468,339)"/>
<path d="M0 0 C0 0.66 0 1.32 0 2 C-1.21816406 2.10957031 -2.43632812 2.21914063 -3.69140625 2.33203125 C-5.31516288 2.49159115 -6.9388577 2.65178093 -8.5625 2.8125 C-9.36236328 2.88275391 -10.16222656 2.95300781 -10.98632812 3.02539062 C-16.21186226 3.55860839 -20.27843913 4.68675206 -25 7 C-24.76953125 5.140625 -24.76953125 5.140625 -24 3 C-17.78885129 -1.21889347 -6.94114925 -3.47057462 0 0 Z " fill="#123546" transform="translate(418,334)"/>
<path d="M0 0 C0.67095703 0.58007812 0.67095703 0.58007812 1.35546875 1.171875 C4.8521026 4.18390075 8.37407463 7.14321031 12 10 C11.01 11.485 11.01 11.485 10 13 C6.57053707 11.38325319 3.43736948 9.42402323 0.25 7.375 C-0.73484375 6.74335938 -1.7196875 6.11171875 -2.734375 5.4609375 C-3.48203125 4.97882813 -4.2296875 4.49671875 -5 4 C-3.35 2.68 -1.7 1.36 0 0 Z " fill="#54819C" transform="translate(344,231)"/>
<path d="M0 0 C0.33 0 0.66 0 1 0 C1.08636719 0.69867188 1.17273438 1.39734375 1.26171875 2.1171875 C1.68204824 4.83968863 2.13743453 7.38196209 3 10 C5.45748398 11.75568004 5.45748398 11.75568004 8 12 C6 14 6 14 3 15 C1.85185003 17.29629994 1.69230191 19.07698086 1.4375 21.625 C1.35371094 22.44226563 1.26992188 23.25953125 1.18359375 24.1015625 C1.12300781 24.72804688 1.06242187 25.35453125 1 26 C0.67 26 0.34 26 0 26 C-0.33 22.7 -0.66 19.4 -1 16 C-3.31 15.01 -5.62 14.02 -8 13 C-8 12.67 -8 12.34 -8 12 C-6.5459375 11.814375 -6.5459375 11.814375 -5.0625 11.625 C-4.051875 11.41875 -3.04125 11.2125 -2 11 C-0.85185003 8.70370006 -0.69230191 6.92301914 -0.4375 4.375 C-0.35371094 3.55773437 -0.26992188 2.74046875 -0.18359375 1.8984375 C-0.12300781 1.27195312 -0.06242187 0.64546875 0 0 Z " fill="#E4E7E9" transform="translate(316,264)"/>
<path d="M0 0 C0.33 0 0.66 0 1 0 C1.02578125 0.59167969 1.0515625 1.18335937 1.078125 1.79296875 C1.45704414 7.0720013 2.10636661 10.10636661 6 14 C5.35546875 14.22429687 4.7109375 14.44859375 4.046875 14.6796875 C1.75611148 15.82889456 1.75611148 15.82889456 1.390625 18.3828125 C1.34421875 19.28773438 1.2978125 20.19265625 1.25 21.125 C1.19328125 22.03507812 1.1365625 22.94515625 1.078125 23.8828125 C1.05234375 24.58148438 1.0265625 25.28015625 1 26 C0.67 26 0.34 26 0 26 C-0.12117188 25.21753906 -0.24234375 24.43507812 -0.3671875 23.62890625 C-0.61855469 22.11103516 -0.61855469 22.11103516 -0.875 20.5625 C-1.03742188 19.55316406 -1.19984375 18.54382813 -1.3671875 17.50390625 C-1.57601563 16.67761719 -1.78484375 15.85132813 -2 15 C-2.66 14.67 -3.32 14.34 -4 14 C-4 13.34 -4 12.68 -4 12 C-3.34 12 -2.68 12 -2 12 C-1.93941406 11.21753906 -1.87882812 10.43507812 -1.81640625 9.62890625 C-1.73261719 8.61699219 -1.64882813 7.60507813 -1.5625 6.5625 C-1.48128906 5.55316406 -1.40007812 4.54382813 -1.31640625 3.50390625 C-1 1 -1 1 0 0 Z " fill="#DADFE1" transform="translate(478,125)"/>
<path d="M0 0 C0.66 0 1.32 0 2 0 C1.61313814 3.62883554 1.18551349 7.25170738 0.75 10.875 C0.64042969 11.90753906 0.53085937 12.94007813 0.41796875 14.00390625 C0.29550781 14.99003906 0.17304688 15.97617188 0.046875 16.9921875 C-0.05786133 17.90339355 -0.16259766 18.81459961 -0.27050781 19.75341797 C-1 22 -1 22 -3.06542969 23.31298828 C-3.70383789 23.53970215 -4.34224609 23.76641602 -5 24 C-2.06732348 2.06732348 -2.06732348 2.06732348 0 0 Z " fill="#79AFC7" transform="translate(351,145)"/>
<path d="M0 0 C0.66 0 1.32 0 2 0 C1.60271115 8.52080037 1.21772491 16.72049367 -1 25 C-1.99 24.34 -2.98 23.68 -4 23 C-3.32545897 15.1753241 -1.73123042 7.65443386 0 0 Z " fill="#74A8C0" transform="translate(471,167)"/>
<path d="M0 0 C0.556875 0.309375 1.11375 0.61875 1.6875 0.9375 C4.12540433 2.05761821 6.36224186 2.56037364 9 3 C9 3.99 9 4.98 9 6 C9.90878906 6.25523437 9.90878906 6.25523437 10.8359375 6.515625 C17.05949532 8.31566942 23.02642961 10.49618433 29 13 C22.96406241 15.0119792 14.75763416 10.86022462 9.125 8.07177734 C5.66001823 6.19206273 2.30998267 4.13885286 -1 2 C-0.67 1.34 -0.34 0.68 0 0 Z " fill="#103243" transform="translate(339,296)"/>
<path d="M0 0 C0.33 0 0.66 0 1 0 C1.40657569 8.13151388 1.367872 17.11261583 -4.203125 23.54296875 C-6.39820055 25.49299656 -8.61006193 27.2964802 -11 29 C-11.66 28.67 -12.32 28.34 -13 28 C-12.113125 27.071875 -11.22625 26.14375 -10.3125 25.1875 C-4.12287526 17.92968944 -1.35404947 9.31666872 0 0 Z " fill="#4D7993" transform="translate(453,209)"/>
<path d="M0 0 C1.77388086 1.09926403 3.54399684 2.20460502 5.3125 3.3125 C6.29863281 3.92738281 7.28476562 4.54226563 8.30078125 5.17578125 C10.50172035 6.66324661 12.23328988 8.0403386 14 10 C3.39527875 9.12204922 3.39527875 9.12204922 0 7 C-0.875 4.5 -0.875 4.5 -1 2 C-0.67 1.34 -0.34 0.68 0 0 Z " fill="#80B7D1" transform="translate(335,295)"/>
<path d="M0 0 C-0.33 0.99 -0.66 1.98 -1 3 C-9.58 3 -18.16 3 -27 3 C-27 2.67 -27 2.34 -27 2 C-17.91214765 0.60950893 -9.21627045 -0.30892527 0 0 Z " fill="#C0C8CC" transform="translate(183,285)"/>
<path d="M0 0 C1.32 0.66 2.64 1.32 4 2 C2.26194659 3.36946622 0.50908767 4.72015954 -1.25 6.0625 C-2.22453125 6.81660156 -3.1990625 7.57070313 -4.203125 8.34765625 C-7 10 -7 10 -9.359375 9.74609375 C-9.90078125 9.49988281 -10.4421875 9.25367188 -11 9 C-7.56638098 5.36440339 -4.2026393 2.63886654 0 0 Z " fill="#ECF0F2" transform="translate(336,304)"/>
<path d="M0 0 C4.26272329 1.52240117 5.98031034 4.03275246 8 8 C8.31674074 11.03378241 8.24296324 13.96295955 8 17 C5.55185821 13.9703348 3.90547147 10.92450401 2.3125 7.375 C1.87550781 6.41335937 1.43851562 5.45171875 0.98828125 4.4609375 C0 2 0 2 0 0 Z " fill="#F1F2F3" transform="translate(439,179)"/>
<path d="M0 0 C7.38455432 1.12373653 12.07364284 5.5792414 17 11 C18.44557218 13.38043323 19.19994571 15.31410346 20 18 C19.01 18.33 18.02 18.66 17 19 C16.5875 17.948125 16.175 16.89625 15.75 15.8125 C12.32919638 8.04930639 7.54028152 5.3816148 0 2 C0 1.34 0 0.68 0 0 Z " fill="#133647" transform="translate(311,325)"/>
<path d="M0 0 C1.875 0.3125 1.875 0.3125 4 1 C6 4 6 4 5.75 6.5625 C5 9 5 9 3 11 C0.875 10.625 0.875 10.625 -1 10 C-0.67 9.34 -0.34 8.68 0 8 C0.0689472 6.62657169 0.08467708 5.24997898 0.0625 3.875 C0.041875 2.59625 0.02125 1.3175 0 0 Z " fill="#8AC3DD" transform="translate(365,272)"/>
<path d="M0 0 C0 0.33 0 0.66 0 1 C4.29 1.33 8.58 1.66 13 2 C13 2.33 13 2.66 13 3 C-0.365 3.495 -0.365 3.495 -14 4 C-10.07627117 0.07627117 -5.34401044 -0.25447669 0 0 Z " fill="#CCDFE8" transform="translate(395,134)"/>
<path d="M0 0 C0.79664063 0.38478516 0.79664063 0.38478516 1.609375 0.77734375 C-1.71990781 4.52278691 -5.76064867 7.79694372 -10.390625 9.77734375 C-12.640625 9.4140625 -12.640625 9.4140625 -14.390625 8.77734375 C-12.48512904 7.24036352 -10.56838907 5.72343121 -8.640625 4.21484375 C-8.10179687 3.77720703 -7.56296875 3.33957031 -7.0078125 2.88867188 C-2.92568219 -0.27249001 -2.92568219 -0.27249001 0 0 Z " fill="#ECF1F3" transform="translate(323.390625,315.22265625)"/>
<path d="M0 0 C9.57 0 19.14 0 29 0 C29 0.33 29 0.66 29 1 C18.86280868 2.69170073 10.18201482 3.2665444 0 1 C0 0.67 0 0.34 0 0 Z " fill="#E6E9EB" transform="translate(142,285)"/>
<path d="M0 0 C0.66 0.33 1.32 0.66 2 1 C0.68 5.95 -0.64 10.9 -2 16 C-2.66 15.67 -3.32 15.34 -4 15 C-3.85866501 13.22880197 -3.71176792 11.45804713 -3.5625 9.6875 C-3.48128906 8.70136719 -3.40007812 7.71523437 -3.31640625 6.69921875 C-3 4 -3 4 -2 1 C-1.34 0.67 -0.68 0.34 0 0 Z " fill="#54829C" transform="translate(349,169)"/>
<path d="M0 0 C1.27617187 0.20786133 1.27617187 0.20786133 2.578125 0.41992188 C3.46757812 0.57138672 4.35703125 0.72285156 5.2734375 0.87890625 C6.170625 1.02650391 7.0678125 1.17410156 7.9921875 1.32617188 C10.21195247 1.69219695 12.43055494 2.06417017 14.6484375 2.44140625 C10.84983431 4.97380838 8.42247267 4.3426878 4.1484375 3.69140625 C3.13330078 3.55992187 3.13330078 3.55992187 2.09765625 3.42578125 C-1.37574198 2.9325176 -3.38619114 2.41832049 -6.3515625 0.44140625 C-3.83842093 -0.81516453 -2.74771825 -0.45795304 0 0 Z " fill="#4A768E" transform="translate(379.3515625,312.55859375)"/>
<path d="M0 0 C0.99 0 1.98 0 3 0 C2.96519531 0.70125 2.93039062 1.4025 2.89453125 2.125 C2.71105336 8.5554631 3.3446123 13.13601882 6 19 C5.34 19.33 4.68 19.66 4 20 C1.37784874 15.43056751 0.55989785 11.86983432 0.3125 6.625 C0.24675781 5.37976563 0.18101562 4.13453125 0.11328125 2.8515625 C0.07589844 1.91054687 0.03851563 0.96953125 0 0 Z " fill="#0F3142" transform="translate(439,238)"/>
<path d="M0 0 C0.66 0.33 1.32 0.66 2 1 C0.59070303 4.47132095 -0.90605083 5.88093274 -4.125 7.75 C-4.84945313 8.17796875 -5.57390625 8.6059375 -6.3203125 9.046875 C-6.87460937 9.36140625 -7.42890625 9.6759375 -8 10 C-8.33 9.01 -8.66 8.02 -9 7 C-8.360625 6.896875 -7.72125 6.79375 -7.0625 6.6875 C-6.381875 6.460625 -5.70125 6.23375 -5 6 C-4.67 5.01 -4.34 4.02 -4 3 C-3.01 3 -2.02 3 -1 3 C-0.67 2.01 -0.34 1.02 0 0 Z " fill="#193644" transform="translate(332,303)"/>
<path d="M0 0 C0.33 0 0.66 0 1 0 C1.66 5.94 2.32 11.88 3 18 C1.68 17.34 0.36 16.68 -1 16 C-1.09688221 10.55306686 -1.12862175 5.36095333 0 0 Z " fill="#55839D" transform="translate(345,192)"/>
<path d="M0 0 C-0.33 1.32 -0.66 2.64 -1 4 C-5.8333472 4.08333357 -10.23692563 3.95261487 -15 3 C-15 2.67 -15 2.34 -15 2 C-13.95199219 1.90912109 -13.95199219 1.90912109 -12.8828125 1.81640625 C-11.97273438 1.73261719 -11.06265625 1.64882813 -10.125 1.5625 C-9.22007812 1.48128906 -8.31515625 1.40007812 -7.3828125 1.31640625 C-4.53561148 0.9383353 -2.95461696 0 0 0 Z " fill="#80B7D1" transform="translate(418,315)"/>
<path d="M0 0 C0.66 0.33 1.32 0.66 2 1 C-0.37277818 6.02470674 -3.21097855 7.56030983 -8 10 C-8.33 9.01 -8.66 8.02 -9 7 C-8.01 6.67 -7.02 6.34 -6 6 C-5.34 5.01 -4.68 4.02 -4 3 C-3.01 3 -2.02 3 -1 3 C-0.67 2.01 -0.34 1.02 0 0 Z " fill="#1A3746" transform="translate(320,312)"/>
<path d="M0 0 C9.405 1.485 9.405 1.485 19 3 C19 3.33 19 3.66 19 4 C12.58311325 4.10349817 6.37305598 3.74507544 0 3 C0 2.01 0 1.02 0 0 Z " fill="#1A3E51" transform="translate(380,315)"/>
<path d="M0 0 C2.04773383 1.84296045 3.40492465 3.61391801 4.9375 5.9375 C6.77057055 8.65933204 8.60625174 10.77723376 11 13 C10.67 13.66 10.34 14.32 10 15 C0.67857143 5.9375 0.67857143 5.9375 0 0 Z " fill="#133545" transform="translate(414,265)"/>
<path d="M0 0 C0.66 0 1.32 0 2 0 C2.08159574 4.16138263 1.98248524 7.9472484 1 12 C0.01 12.33 -0.98 12.66 -2 13 C-1.34 8.71 -0.68 4.42 0 0 Z " fill="#7EB5CD" transform="translate(471,167)"/>
<path d="M0 0 C1.98 0.495 1.98 0.495 4 1 C3.67 2.65 3.34 4.3 3 6 C1.68 5.67 0.36 5.34 -1 5 C-0.67 3.35 -0.34 1.7 0 0 Z " fill="#143343" transform="translate(222,245)"/>
<path d="M0 0 C2.12046792 3.53411321 2.53199289 6.94393835 3 11 C0.47411298 8.63707344 -0.88820837 7.33537489 -2 4 C-1.0625 1.8125 -1.0625 1.8125 0 0 Z " fill="#4A7690" transform="translate(353,210)"/>
<path d="M0 0 C4.95 0.99 4.95 0.99 10 2 C10 2.66 10 3.32 10 4 C8.72125 3.896875 7.4425 3.79375 6.125 3.6875 C5.04605469 3.60048828 5.04605469 3.60048828 3.9453125 3.51171875 C2 3 2 3 0 0 Z " fill="#1B3F51" transform="translate(367,308)"/>
<path d="M0 0 C0.33 0 0.66 0 1 0 C1.28571429 8.57142857 1.28571429 8.57142857 -1 12 C-2.11658501 7.31034294 -1.80619523 4.46236469 0 0 Z " fill="#1C4153" transform="translate(350,170)"/>
<path d="M0 0 C0.33 0 0.66 0 1 0 C0.51171875 6.0546875 0.51171875 6.0546875 0 8 C-0.99 8.66 -1.98 9.32 -3 10 C-2.69201674 8.51988629 -2.378482 7.04092675 -2.0625 5.5625 C-1.88847656 4.73878906 -1.71445312 3.91507812 -1.53515625 3.06640625 C-1 1 -1 1 0 0 Z " fill="#5987A2" transform="translate(356,271)"/>
<path d="M0 0 C0.66 0 1.32 0 2 0 C2.33 2.31 2.66 4.62 3 7 C2.01 7.33 1.02 7.66 0 8 C0 5.36 0 2.72 0 0 Z " fill="#103141" transform="translate(423,251)"/>
<path d="M0 0 C0.66 0 1.32 0 2 0 C1.67 2.97 1.34 5.94 1 9 C0.34 9 -0.32 9 -1 9 C-0.67 6.03 -0.34 3.06 0 0 Z " fill="#0D2F40" transform="translate(462,200)"/>
<path d="M0 0 C1 3 1 3 0 6 C-1.65 6 -3.3 6 -5 6 C-4.75 4.125 -4.75 4.125 -4 2 C-1.9375 0.75 -1.9375 0.75 0 0 Z " fill="#0F2D3D" transform="translate(311,320)"/>
<path d="M0 0 C2.475 0.99 2.475 0.99 5 2 C5 2.99 5 3.98 5 5 C2.69 4.34 0.38 3.68 -2 3 C-1.34 2.01 -0.68 1.02 0 0 Z " fill="#0D2D3D" transform="translate(323,312)"/>
<path d="M0 0 C2.04296875 0.4609375 2.04296875 0.4609375 4.1875 1.375 C4.90292969 1.67148437 5.61835938 1.96796875 6.35546875 2.2734375 C7.16951172 2.63308594 7.16951172 2.63308594 8 3 C3.84228506 4.31538327 1.1120703 3.34433068 -3 2 C-2.01 1.34 -1.02 0.68 0 0 Z " fill="#6B9DB7" transform="translate(349,304)"/>
<path d="M0 0 C0.33 0 0.66 0 1 0 C1 2.64 1 5.28 1 8 C0.01 7.34 -0.98 6.68 -2 6 C-1.125 1.125 -1.125 1.125 0 0 Z " fill="#7FB6CE" transform="translate(469,184)"/>
<path d="M0 0 C0.33 0.66 0.66 1.32 1 2 C1.99 1.67 2.98 1.34 4 1 C4 2.98 4 4.96 4 7 C3.01 6.67 2.02 6.34 1 6 C0.67 4.02 0.34 2.04 0 0 Z " fill="#48748C" transform="translate(347,296)"/>
<path d="M0 0 C0.66 0.66 1.32 1.32 2 2 C1.96712417 4.72869407 1.43602229 7.2966618 1 10 C-1.56687367 6.1496895 -0.83288724 4.41430237 0 0 Z " fill="#274D61" transform="translate(353,269)"/>
</svg>
